<?xml version="1.0" standalone="no"?>
<!DOCTYPE svg PUBLIC "-//W3C//DTD SVG 20010904//EN"
 "http://www.w3.org/TR/2001/REC-SVG-20010904/DTD/svg10.dtd">
<svg version="1.0" xmlns="http://www.w3.org/2000/svg"
 width="228.000000pt" height="221.000000pt" viewBox="0 0 228.000000 221.000000"
 preserveAspectRatio="xMidYMid meet">

<g transform="translate(0.000000,221.000000) scale(0.100000,-0.100000)"
fill="#000000" stroke="none">
<path d="M1230 2189 c0 -8 -11 -9 -31 -5 -31 6 -31 5 -25 -25 l6 -32 -40 7
c-41 6 -51 -3 -25 -24 8 -7 15 -16 15 -21 0 -5 -7 -9 -15 -9 -8 0 -15 -5 -15
-11 0 -7 9 -9 22 -5 13 3 40 -3 63 -14 22 -10 57 -20 77 -22 32 -2 35 -4 26
-21 -15 -29 -4 -30 37 -2 42 28 64 33 44 9 -17 -21 -64 -44 -89 -44 -17 0 -20
4 -15 20 5 17 2 20 -23 20 -16 0 -46 11 -67 25 -20 15 -39 24 -41 22 -6 -6 79
-67 93 -67 8 0 11 -4 8 -10 -3 -6 -51 -10 -110 -10 -79 0 -104 3 -108 14 -7
18 38 27 71 15 14 -5 27 -7 30 -5 7 8 -19 37 -51 56 -27 17 -27 17 -7 35 20
18 20 19 -17 33 -21 8 -59 17 -85 19 -39 4 -48 9 -48 24 0 10 -4 19 -10 19 -5
0 -10 -4 -10 -8 0 -5 -18 -16 -40 -26 -22 -9 -49 -31 -61 -47 -20 -29 -33 -37
-86 -53 -17 -6 -22 -2 -25 16 -4 28 -48 37 -68 13 -11 -13 -11 -20 1 -41 12
-24 12 -28 -10 -45 -33 -27 -61 -25 -61 5 0 38 -18 40 -46 7 -16 -19 -35 -31
-50 -31 -20 0 -24 -5 -24 -29 0 -35 -25 -60 -42 -43 -18 18 -28 14 -28 -11 0
-12 -9 -39 -20 -60 -11 -20 -20 -43 -20 -50 0 -9 -12 -11 -40 -9 -41 4 -51 -6
-26 -27 7 -6 16 -25 19 -40 4 -16 16 -38 27 -49 23 -21 18 -44 -13 -71 -12
-10 -19 -6 -37 19 -24 34 -50 38 -75 13 -11 -11 -15 -26 -11 -45 5 -28 5 -28
-18 -13 -30 20 -40 7 -25 -32 11 -29 -5 -103 -23 -103 -4 0 -8 -38 -8 -85 0
-81 -1 -85 -22 -85 -13 0 -29 -4 -37 -9 -12 -8 -10 -14 8 -38 12 -15 32 -44
44 -63 12 -19 36 -41 54 -49 24 -11 32 -21 35 -47 5 -39 0 -41 -35 -14 -32 25
-59 25 -82 0 -36 -39 17 -96 66 -70 17 10 25 8 44 -10 13 -12 25 -30 28 -40 4
-16 2 -16 -34 -2 -22 8 -42 13 -45 10 -3 -3 2 -23 10 -43 9 -21 16 -39 16 -41
0 -7 -35 9 -52 24 -17 14 -18 12 -18 -22 0 -20 9 -55 21 -78 19 -37 19 -42 5
-50 -23 -13 -20 -21 14 -37 17 -7 38 -24 48 -39 9 -14 33 -42 53 -63 28 -29
35 -45 31 -64 -7 -37 16 -84 50 -101 l29 -15 -23 -19 -23 -18 30 -11 c17 -6
38 -16 48 -22 11 -6 22 -7 25 -4 10 9 -28 35 -51 35 -35 0 -6 19 40 26 40 6
44 9 30 19 -16 11 -15 13 2 29 16 15 20 15 30 2 11 -12 9 -21 -8 -45 -41 -57
-20 -120 46 -142 21 -7 63 -30 94 -51 117 -79 296 -145 453 -167 252 -35 488
21 738 177 34 22 75 42 90 46 61 14 73 83 26 147 -19 25 -20 31 -8 39 21 13
54 -18 39 -37 -6 -7 -10 -13 -8 -14 2 0 20 -2 39 -5 36 -5 67 -24 38 -24 -9 0
-26 -9 -39 -20 -29 -23 -5 -28 25 -5 11 8 28 15 38 15 22 0 24 28 2 37 -12 4
-8 13 22 44 33 34 36 42 32 77 -5 35 -3 41 18 51 13 5 34 28 48 49 27 43 71
82 92 82 19 0 18 17 -1 28 -14 7 -13 13 4 53 11 24 21 59 21 77 l0 33 -30 -17
c-34 -21 -46 -15 -31 14 6 12 11 28 11 37 0 17 -18 17 -65 -1 -16 -6 -16 -5
-1 23 18 37 40 47 66 31 24 -15 65 2 73 31 13 53 -56 80 -100 39 -28 -26 -33
-22 -25 20 5 23 16 37 41 50 19 9 42 32 52 51 10 18 28 44 41 58 19 20 20 25
8 33 -8 5 -25 10 -37 10 -22 0 -23 4 -23 81 0 57 -4 85 -15 95 -21 21 -30 83
-16 107 10 15 10 22 1 31 -15 15 -70 -45 -70 -78 0 -13 -7 -29 -16 -37 -20
-17 -34 2 -34 49 0 24 4 32 18 32 26 0 62 29 62 50 0 53 -71 68 -98 20 -9 -16
-19 -30 -22 -30 -3 0 -14 14 -24 31 -18 30 -18 31 3 53 12 12 21 29 21 38 0 8
9 27 20 41 11 14 20 27 20 30 0 10 -35 13 -57 5 -16 -5 -23 -4 -23 5 0 7 -9
29 -20 50 -11 20 -20 48 -20 62 0 27 -9 32 -28 13 -17 -17 -42 8 -42 43 0 27
-3 29 -40 29 -31 0 -56 10 -101 40 -33 22 -63 40 -66 40 -3 0 -3 -18 1 -39 l6
-40 -44 25 c-57 32 -70 49 -71 92 0 42 -25 63 -52 46 -10 -7 -18 -21 -17 -33
1 -32 -30 -26 -73 14 -22 21 -58 41 -89 50 -29 8 -56 20 -59 25 -8 14 -25 13
-25 -1z m155 -81 c51 -42 116 -73 125 -58 4 7 20 -1 41 -22 19 -18 43 -38 54
-45 19 -11 18 -12 -6 -12 -15 -1 -32 6 -39 14 -7 8 -25 15 -41 15 -16 0 -37 9
-47 20 -15 16 -30 20 -60 19 -23 -2 -45 0 -48 4 -4 4 3 7 15 7 20 0 21 1 7 28
-13 26 -36 39 -123 73 -13 5 -23 12 -23 17 0 17 105 -27 145 -60z m-164 39
c-8 -8 -16 -7 -27 5 -14 14 -14 15 11 10 19 -3 23 -8 16 -15z m-356 -32 c-45
-38 -42 -45 7 -15 19 12 51 20 75 20 43 0 93 -17 93 -31 0 -18 -23 -20 -56 -4
-40 19 -79 15 -141 -13 l-38 -16 45 -6 45 -6 -42 -7 c-24 -4 -62 -10 -85 -13
-24 -4 -47 -13 -51 -20 -4 -8 -19 -14 -32 -14 -13 0 -27 -4 -30 -10 -3 -5 -15
-10 -26 -10 -20 0 -20 0 0 21 10 11 25 22 32 23 56 10 122 44 135 69 8 15 31
36 52 46 56 28 61 24 17 -14z m448 -2 c19 -6 16 -8 -17 -13 -22 -3 -41 -10
-43 -16 -2 -7 6 -10 21 -7 14 3 38 2 53 -2 25 -6 26 -8 9 -17 -33 -18 -120 -4
-169 28 l-45 29 85 3 c47 1 95 -1 106 -5z m217 -8 c0 -8 -9 -15 -20 -15 -11 0
-20 7 -20 15 0 8 9 15 20 15 11 0 20 -7 20 -15z m-873 -41 c8 -21 -13 -42 -28
-27 -13 13 -5 43 11 43 6 0 13 -7 17 -16z m321 7 c21 -13 -48 -51 -89 -50 -35
1 -33 3 14 13 15 4 27 11 27 16 0 6 -12 10 -27 10 -22 0 -25 2 -13 10 18 12
70 13 88 1z m79 -33 l28 -11 -35 -7 c-19 -4 -50 -11 -67 -15 -39 -9 -44 6 -11
29 27 19 47 20 85 4z m383 -18 c0 -5 -6 -10 -14 -10 -8 0 -17 -9 -21 -19 -3
-11 -18 -21 -35 -23 -40 -6 -38 3 7 35 39 28 63 34 63 17z m269 -21 c18 -11
31 -23 27 -26 -3 -3 -14 1 -24 10 -24 22 -38 22 -21 0 12 -14 12 -16 0 -12
-15 5 -36 49 -23 49 4 0 22 -9 41 -21z m-839 -30 c0 -15 -41 4 -51 23 -11 20
-10 20 20 2 17 -10 31 -21 31 -25z m-113 25 c-3 -3 -12 -4 -19 -1 -8 3 -5 6 6
6 11 1 17 -2 13 -5z m701 -12 c2 -7 -6 -12 -17 -12 -21 0 -27 11 -14 24 9 9
26 2 31 -12z m-928 -2 c0 -5 -7 -10 -16 -10 -8 0 -12 5 -9 10 3 6 10 10 16 10
5 0 9 -4 9 -10z m275 0 c3 -5 -3 -10 -15 -10 -12 0 -18 5 -15 10 3 6 10 10 15
10 5 0 12 -4 15 -10z m191 -2 c3 -4 -20 -8 -50 -8 -30 0 -58 5 -61 10 -4 7 13
10 50 9 30 -1 58 -6 61 -11z m542 -1 c9 -10 4 -12 -23 -9 -19 2 -35 8 -35 13
0 14 46 11 58 -4z m-789 -1 c-11 -9 -69 -15 -64 -6 3 6 20 10 37 10 17 0 29
-2 27 -4z m1118 -108 c-3 -8 -6 -5 -6 6 -1 11 2 17 5 13 3 -3 4 -12 1 -19z
m-1467 -30 c0 -6 -11 -23 -25 -40 -14 -16 -28 -47 -31 -69 -4 -21 -10 -39 -15
-39 -18 0 -8 77 16 129 21 45 27 51 40 41 8 -7 15 -17 15 -22z m1538 -35 c18
-44 23 -69 17 -89 -7 -28 -8 -27 -25 24 -9 29 -25 61 -35 72 -11 12 -14 26
-10 40 10 33 25 20 53 -47z m-52 -18 c9 -13 20 -41 24 -61 l8 -36 -29 28 c-21
20 -29 37 -29 61 0 40 4 41 26 8z m-1500 -72 c-32 -35 -34 -15 -4 47 l22 45 4
-32 c2 -24 -3 -40 -22 -60z m-98 39 c6 -5 11 -19 11 -33 -1 -13 2 -32 6 -41 4
-11 3 -18 -4 -18 -6 0 -13 12 -17 28 -4 15 -13 37 -20 50 -15 23 -3 31 24 14z
m1729 -10 c-10 -10 -17 -25 -17 -33 0 -9 -7 -24 -15 -35 -13 -17 -14 -17 -15
-2 0 9 5 20 10 23 6 3 10 11 10 16 0 6 -4 7 -10 4 -14 -9 -12 19 2 33 7 7 21
12 32 12 18 0 18 -1 3 -18z m-1229 -17 c9 -3 12 -49 12 -186 l0 -181 -31 6
c-17 3 -51 6 -75 6 l-44 0 0 184 0 184 63 -5 c34 -2 68 -6 75 -8z m185 -166
c-1 -100 -3 -182 -5 -184 -2 -2 -36 -4 -75 -6 l-73 -4 -4 110 c-2 61 -1 142 2
180 l7 70 60 6 c33 3 67 6 75 7 13 2 15 -22 13 -179z m475 -7 l2 -183 -72 3
-73 3 -3 181 -2 182 72 -2 73 -1 3 -183z m180 6 l-3 -183 -78 -5 c-44 -3 -80
-3 -80 0 -1 3 0 84 3 180 l5 175 60 6 c33 3 68 6 78 7 16 2 17 -11 15 -180z
m-1037 102 c-4 -40 -9 -58 -13 -47 -4 10 -18 17 -33 17 -15 0 -24 4 -20 10 3
6 15 10 26 10 20 0 23 4 34 54 9 44 12 27 6 -44z m29 -304 c-7 -7 -10 49 -10
175 0 102 3 189 8 193 4 4 8 -74 10 -175 1 -115 -1 -186 -8 -193z m390 188 c0
-121 -3 -183 -10 -179 -6 4 -10 77 -10 186 0 113 4 179 10 179 6 0 10 -69 10
-186z m32 149 c2 -31 7 -39 26 -41 12 -2 22 -7 22 -12 0 -5 -10 -10 -22 -12
-22 -3 -23 -8 -26 -101 -2 -86 -1 -98 15 -103 46 -15 47 -17 18 -23 -27 -6
-30 -10 -33 -49 -3 -38 -5 -42 -30 -41 -26 0 -27 0 -4 9 l23 10 -3 200 c-2
110 0 200 4 200 4 0 8 -17 10 -37z m198 -153 c-3 -102 -8 -177 -12 -167 -4 9
-17 17 -29 17 -27 0 -19 24 10 28 21 3 22 7 19 105 l-3 102 -27 3 c-16 2 -28
7 -28 12 0 5 12 10 28 12 20 2 28 9 30 28 3 28 11 55 15 49 1 -2 0 -87 -3
-189z m91 -184 c27 -4 54 -4 59 -1 12 8 50 -3 50 -14 0 -15 -150 -3 -165 13
-12 12 -15 49 -15 189 0 95 3 177 8 181 4 4 8 -75 10 -177 l2 -184 51 -7z
m337 186 c1 -106 -1 -182 -7 -182 -17 0 -21 33 -21 202 0 131 3 169 13 166 9
-4 13 -52 15 -186z m32 153 c0 -29 4 -36 25 -41 31 -8 32 -22 3 -26 -22 -3
-23 -8 -26 -101 -3 -104 -6 -97 47 -113 19 -6 7 -16 -21 -18 -18 -1 -24 -9
-31 -43 l-8 -43 -97 2 -97 2 92 3 91 4 7 125 c4 69 5 161 3 205 -3 43 -1 79 4
79 4 0 8 -16 8 -35z m180 -27 c0 -5 -4 -8 -10 -8 -5 0 -10 10 -10 23 0 18 2
19 10 7 5 -8 10 -18 10 -22z m-1470 2 c0 -11 -4 -20 -9 -20 -5 0 -7 9 -4 20 3
11 7 20 9 20 2 0 4 -9 4 -20z m1560 -59 c33 -66 47 -80 56 -57 3 9 10 16 15
16 6 0 5 -8 -1 -19 -14 -28 -12 -67 6 -102 26 -51 9 -56 -25 -6 -17 26 -44 54
-59 62 -24 14 -24 16 -4 12 30 -7 28 8 -12 72 -26 42 -31 57 -22 67 6 7 12 13
13 14 2 0 16 -27 33 -59z m-1616 43 c13 -5 12 -11 -8 -42 -13 -21 -31 -52 -40
-70 l-17 -34 23 6 23 7 -23 -17 c-13 -10 -37 -37 -54 -61 -16 -25 -32 -42 -35
-39 -3 2 3 26 13 51 14 39 15 53 6 78 -13 34 -6 52 10 24 13 -24 28 -11 58 53
13 27 25 50 26 50 1 0 9 -3 18 -6z m56 -43 c0 -5 -9 -7 -20 -4 -11 3 -20 7
-20 9 0 2 9 4 20 4 11 0 20 -4 20 -9z m1500 5 c0 -2 -11 -6 -25 -8 -14 -3 -25
-1 -25 3 0 5 11 9 25 9 14 0 25 -2 25 -4z m-1688 -11 c9 -9 -16 -55 -30 -55
-16 0 -26 25 -18 45 5 15 37 21 48 10z m1873 -24 c0 -33 -17 -36 -31 -6 -13
27 -8 37 16 33 8 -2 15 -14 15 -27z m-1701 9 c33 -12 37 -51 5 -43 -11 3 -31
0 -45 -7 -13 -8 -27 -11 -30 -8 -10 10 26 66 43 68 1 0 13 -4 27 -10z m1550
-21 c21 -36 15 -47 -18 -29 -14 7 -34 10 -45 7 -27 -7 -29 27 -3 42 29 18 47
12 66 -20z m-1341 -246 c5 -4 48 -11 95 -14 l87 -6 -91 -1 c-101 -2 -114 4
-114 55 0 29 -3 33 -25 33 -31 0 -33 17 -2 22 21 3 22 9 27 93 l4 90 6 -132
c3 -72 9 -135 13 -140z m-455 204 c22 -26 24 -65 6 -96 -10 -17 -22 -31 -26
-31 -4 0 -6 31 -5 70 2 71 6 80 25 57z m80 -26 c6 -60 -38 -76 -51 -18 -2 12
-8 29 -11 38 -6 14 -1 16 26 14 29 -2 33 -6 36 -34z m1919 19 c-3 -11 0 -38 5
-60 6 -22 7 -48 3 -57 -5 -15 -10 -12 -25 17 -24 43 -25 69 -4 98 19 27 28 28
21 2z m-1741 -1 c8 -14 -21 -43 -35 -35 -19 12 -13 46 8 46 11 0 23 -5 27 -11z
m1514 -8 c0 -24 -25 -34 -40 -16 -15 18 -5 35 21 35 12 0 19 -7 19 -19z
m-1574 -33 c4 -6 2 -14 -5 -16 -6 -2 -25 -15 -41 -29 -37 -31 -39 -15 -4 26
28 34 39 38 50 19z m1643 -17 c33 -46 25 -53 -24 -20 -45 30 -51 49 -15 49 10
0 28 -13 39 -29z m-71 -54 l3 -58 -27 7 c-28 7 -30 1 -9 -48 6 -14 2 -18 -15
-18 -22 0 -23 2 -16 61 3 34 6 77 6 95 0 30 2 32 28 25 25 -7 27 -12 30 -64z
m-1498 -11 c0 -41 3 -81 6 -90 4 -12 0 -16 -16 -16 -17 0 -21 4 -15 18 20 49
19 55 -7 49 -24 -6 -26 -4 -30 33 -5 56 6 80 37 80 24 0 25 -1 25 -74z m-222
6 c2 -11 -2 -30 -8 -42 -9 -17 -14 -19 -26 -9 -17 14 -17 19 -4 54 12 30 33
29 38 -3z m143 1 c2 -45 -1 -57 -21 -77 -29 -30 -34 -13 -11 33 29 55 26 62
-9 21 -27 -30 -30 -32 -30 -13 0 20 42 63 61 63 5 0 10 -12 10 -27z m1643 6
c14 -11 26 -30 26 -42 0 -19 -3 -17 -30 13 -35 41 -38 34 -9 -21 23 -46 20
-56 -10 -37 -23 14 -36 57 -26 88 8 25 16 25 49 -1z m134 -5 c10 -20 9 -29 -2
-45 -13 -19 -14 -19 -30 6 -13 19 -14 30 -6 45 14 27 24 25 38 -6z m-1958
-111 c-1 -27 -1 -27 -15 -9 -14 19 -15 19 -15 -8 0 -15 5 -36 11 -47 5 -11 9
-34 7 -52 l-3 -32 -25 40 c-21 34 -25 52 -25 123 l0 83 33 -35 c20 -23 32 -46
32 -63z m101 23 c14 -16 11 -30 -17 -67 l-26 -34 6 40 c10 60 -11 21 -28 -55
-8 -34 -17 -65 -20 -68 -10 -10 -6 121 4 160 6 21 23 52 38 70 l27 32 3 -34
c2 -19 8 -39 13 -44z m1825 -1 c17 -35 24 -68 24 -112 0 -35 -4 -63 -8 -63 -5
0 -14 28 -21 63 -15 77 -35 113 -26 47 l6 -45 -27 43 c-22 37 -25 48 -15 68 6
14 11 37 11 51 0 23 2 24 17 12 9 -8 27 -36 39 -64z m89 -90 c-9 -24 -23 -49
-32 -57 -15 -12 -16 -8 -10 37 4 28 10 64 13 80 l5 30 -15 -25 -15 -25 -1 28
c0 16 12 44 28 64 l27 37 8 -63 c7 -50 6 -72 -8 -106z m-1444 125 c33 0 59 -4
59 -10 0 -6 -33 -10 -80 -10 -44 0 -80 4 -80 8 0 15 13 23 28 17 7 -3 40 -5
73 -5z m267 -7 c3 -10 -18 -13 -82 -13 -99 0 -117 17 -23 23 87 5 100 4 105
-10z m660 0 c3 -10 -19 -13 -87 -13 -103 0 -124 17 -28 23 90 5 110 3 115 -10z
m-313 -26 l80 -3 -92 -2 c-90 -2 -93 -1 -93 20 0 20 1 20 13 5 9 -12 32 -17
92 -20z m-973 -14 c-11 -21 -22 -55 -26 -76 -7 -40 -59 -107 -72 -94 -4 4 9
39 28 77 20 39 35 70 33 70 -1 0 -26 -30 -54 -66 -42 -55 -51 -62 -51 -43 0
35 44 94 98 134 26 19 50 35 55 35 4 0 -1 -17 -11 -37z m1589 -7 c53 -42 89
-94 89 -131 0 -10 -22 10 -51 49 -29 37 -54 64 -56 62 -3 -3 4 -17 15 -33 24
-35 54 -104 47 -111 -13 -13 -57 47 -72 98 -8 30 -22 67 -30 83 -19 37 -7 34
58 -17z m-483 11 c2 -10 -3 -17 -12 -17 -10 0 -16 9 -16 21 0 24 23 21 28 -4z
m-648 -7 c0 -21 -15 -27 -25 -10 -7 12 2 30 16 30 5 0 9 -9 9 -20z m143 13
c-7 -2 -21 -2 -30 0 -10 3 -4 5 12 5 17 0 24 -2 18 -5z m-563 -72 c-56 -75
-63 -78 -48 -23 11 41 33 63 54 55 11 -4 10 -10 -6 -32z m1497 -5 c20 -58 12
-62 -25 -15 -38 50 -40 62 -10 57 14 -2 25 -15 35 -42z m6 -69 c21 -20 35 -37
30 -36 -44 8 -72 -28 -54 -68 9 -20 17 -23 50 -22 22 2 47 -3 56 -11 24 -20
38 -61 25 -74 -5 -5 -10 -21 -10 -35 0 -40 -18 -11 -22 34 l-3 40 -31 -33 -30
-32 -23 31 c-26 35 -35 32 -37 -17 -1 -42 -18 -64 -36 -46 -30 30 -38 13 -38
-79 0 -85 -2 -93 -25 -115 -22 -20 -44 -17 -31 4 8 14 -23 52 -43 52 -24 0
-54 -34 -49 -57 2 -10 16 -24 31 -31 34 -16 35 -35 3 -50 -38 -17 -60 -56 -46
-81 6 -12 17 -21 25 -21 13 0 31 -18 24 -25 -2 -2 -22 -6 -43 -11 l-39 -7 6
32 c7 35 1 38 -30 16 -21 -15 -22 -14 -25 27 -2 23 -8 43 -15 45 -6 3 -24 -14
-38 -36 -16 -23 -32 -38 -40 -35 -8 3 -20 -6 -28 -23 -23 -42 -94 -107 -120
-108 -14 0 -26 -10 -36 -30 -18 -38 -28 -45 -70 -45 -32 0 -30 2 55 63 110 77
290 256 366 363 99 139 177 315 213 479 l7 30 16 -25 c9 -14 34 -42 55 -63z
m-1464 16 c30 -135 119 -323 213 -450 94 -128 245 -274 371 -361 69 -47 73
-59 14 -48 -26 5 -35 13 -42 39 -8 26 -15 32 -37 32 -30 0 -78 40 -114 97 -16
25 -29 35 -39 32 -8 -4 -15 -2 -15 3 0 5 -13 24 -30 43 -25 29 -31 33 -40 20
-5 -8 -10 -30 -10 -48 0 -32 -1 -33 -22 -18 -32 23 -38 20 -31 -16 5 -27 4
-30 -11 -25 -10 4 -26 7 -37 7 -10 0 -19 7 -19 15 0 8 8 15 19 15 10 0 24 7
31 15 16 19 -9 59 -51 83 -16 10 -29 25 -29 35 0 10 4 16 8 13 5 -3 18 2 30
10 48 33 9 100 -44 75 -16 -7 -24 -19 -24 -36 0 -30 -3 -31 -30 -8 -17 15 -20
30 -20 110 0 95 -8 111 -39 81 -18 -18 -43 18 -38 55 5 35 -15 36 -42 1 l-21
-27 -21 27 c-28 35 -39 33 -39 -8 0 -19 -4 -38 -10 -41 -5 -3 -10 3 -10 14 0
11 -4 23 -10 26 -16 10 -11 40 11 69 15 20 29 26 58 26 42 0 61 14 61 45 0 27
-18 45 -44 45 -18 0 -16 4 12 26 18 14 39 39 47 55 9 16 19 29 24 29 4 0 14
-26 20 -57z m-358 20 c6 -16 22 -43 35 -61 14 -18 24 -38 21 -45 -5 -15 -63
45 -94 97 l-22 36 25 0 c18 0 27 -8 35 -27z m2142 5 c-11 -13 -28 -37 -37 -55
-16 -31 -43 -53 -66 -53 -5 0 5 23 25 51 19 28 35 57 35 65 0 9 11 14 32 14
l31 0 -20 -22z m-1879 -94 c21 -8 21 -50 0 -58 -32 -12 -57 27 -32 52 14 14
12 14 32 6z m1590 0 c19 -7 21 -50 4 -56 -22 -8 -38 3 -38 26 0 33 8 40 34 30z
m-1719 -63 l-7 -36 36 34 c25 24 36 30 36 19 0 -9 -7 -19 -15 -22 -21 -8 -47
-73 -40 -96 3 -11 0 -31 -7 -45 l-14 -26 -18 41 c-9 22 -26 45 -37 50 -10 6
-19 16 -19 22 0 6 12 3 27 -7 l26 -17 -7 56 c-4 35 -2 56 4 56 5 0 10 7 10 16
0 14 3 14 16 3 11 -9 14 -22 9 -48z m873 43 c18 -3 22 -11 22 -40 0 -45 -40
-204 -51 -204 -5 0 -9 -5 -9 -11 0 -16 35 -6 36 11 2 34 4 40 14 40 6 0 10
-33 10 -80 l0 -81 -102 3 -103 3 -3 185 -2 185 82 -3 c46 -1 93 -5 106 -8z
m252 -168 c0 -213 13 -193 -124 -198 l-88 -2 -4 76 c-4 78 11 117 22 59 5 -21
12 -31 25 -31 19 0 26 15 11 24 -17 10 -53 155 -50 198 l3 43 90 6 c50 3 96 6
103 7 9 2 12 -41 12 -182z m680 163 c0 -13 -13 -11 -35 5 -18 13 -18 14 8 9
15 -3 27 -9 27 -14z m63 -62 c-6 -47 2 -58 25 -35 6 6 15 8 19 5 4 -4 -4 -15
-16 -24 -13 -8 -31 -33 -40 -54 l-18 -39 -11 25 c-7 14 -12 44 -12 66 0 29 -7
47 -25 65 -14 14 -25 30 -25 37 0 7 14 -3 30 -21 l30 -32 0 29 c0 16 3 37 6
46 6 14 8 14 24 -3 14 -15 17 -30 13 -65z m-1804 70 c-2 -1 -12 -9 -21 -16
-15 -12 -18 -11 -18 3 0 10 8 16 22 16 12 0 19 -1 17 -3z m1131 -32 c0 -23 5
-37 15 -40 49 -16 50 -17 17 -27 l-33 -9 3 -101 c3 -97 4 -102 26 -108 13 -3
23 -9 23 -15 0 -5 -10 -12 -23 -15 -18 -5 -24 -14 -26 -41 l-3 -36 -116 -7
c-75 -4 -120 -3 -127 4 -7 7 26 10 101 10 83 0 113 3 122 14 9 10 11 70 9 210
-2 108 0 196 5 196 4 0 7 -16 7 -35z m-558 8 c-7 -15 -9 -202 -3 -360 l1 -33
117 0 c64 0 114 -2 112 -5 -3 -2 -58 -7 -122 -11 l-117 -5 0 26 c0 40 -18 65
-45 65 -34 0 -32 18 3 22 l27 3 0 105 0 105 -27 3 c-36 4 -36 20 -1 24 22 2
29 10 36 41 5 20 13 37 18 37 6 0 6 -7 1 -17z m34 -159 c4 -142 3 -172 -10
-189 -14 -18 -15 -4 -16 157 0 157 5 217 16 205 2 -2 6 -80 10 -173z m492 -12
c1 -106 -1 -182 -7 -182 -17 0 -21 33 -21 202 0 131 3 169 13 166 9 -4 13 -52
15 -186z m-1283 98 c0 -18 -6 -26 -23 -28 -24 -4 -38 18 -28 44 3 9 15 14 28
12 17 -2 23 -10 23 -28z m2113 2 c4 -29 -26 -42 -44 -18 -17 24 -6 48 20 44
13 -2 22 -12 24 -26z m-1889 -101 c-1 -14 -4 -39 -8 -56 l-7 -30 -13 23 c-9
16 -10 40 -6 75 7 46 9 49 21 32 8 -10 13 -30 13 -44z m1647 -63 c-14 -19 -15
-17 -21 27 -5 31 -3 55 5 73 13 27 14 26 22 -26 6 -41 5 -58 -6 -74z m-1572
67 c6 -34 3 -50 -10 -67 -16 -23 -16 -23 -10 12 5 26 3 31 -5 23 -6 -6 -14
-32 -16 -57 -7 -55 -23 -51 -23 6 0 41 34 128 50 128 4 0 11 -20 14 -45z m713
8 c-3 -10 -5 -4 -5 12 0 17 2 24 5 18 2 -7 2 -21 0 -30z m811 -32 c15 -47 15
-88 2 -96 -6 -4 -10 6 -10 22 -1 15 -7 42 -15 58 l-15 30 3 -32 c4 -37 -3 -42
-20 -14 -8 13 -9 29 -1 60 10 39 12 41 28 26 9 -8 22 -33 28 -54z m-1618 -86
c12 -13 30 -48 40 -77 19 -55 20 -54 39 27 14 59 51 137 69 143 9 3 12 -19 12
-82 0 -72 -3 -86 -16 -86 -13 0 -15 8 -12 43 3 23 8 50 12 60 5 10 4 17 -2 17
-12 0 -52 -92 -52 -121 0 -18 2 -20 18 -9 9 7 -23 -26 -73 -74 -49 -47 -94
-86 -98 -86 -5 0 -24 17 -43 38 -18 20 -50 54 -71 75 l-37 37 35 0 c47 -1 98
-21 144 -56 l39 -29 -8 25 c-16 55 -15 63 4 25 l19 -40 1 30 c0 17 -11 48 -25
70 -13 22 -25 52 -25 68 0 15 -5 27 -10 27 -20 0 -22 -31 -8 -91 l15 -60 -21
20 c-25 26 -35 140 -16 196 l12 37 18 -51 c9 -29 27 -63 40 -76z m1739 7 c1
-49 -23 -131 -34 -120 -3 3 -2 32 3 64 6 32 7 64 5 71 -9 24 -23 13 -23 -18 0
-17 -11 -49 -24 -72 -37 -65 -40 -84 -16 -92 13 -4 28 -1 38 9 30 26 105 56
145 56 l38 0 -36 -31 c-20 -18 -43 -45 -51 -60 -8 -16 -28 -36 -45 -44 l-30
-16 -73 71 c-50 48 -72 77 -69 89 6 22 -34 128 -51 134 -11 4 -11 -1 0 -31 20
-57 18 -92 -6 -92 -18 0 -20 7 -20 73 0 85 9 106 33 79 23 -26 55 -101 63
-150 8 -50 19 -54 28 -9 3 18 24 56 45 84 21 29 42 69 46 90 l8 38 12 -35 c8
-19 14 -59 14 -88z m-1870 72 c34 -28 39 -44 16 -44 -14 0 -14 -3 -2 -27 8
-16 17 -45 21 -65 7 -36 6 -37 -16 -29 -18 7 -27 24 -43 87 -11 44 -24 85 -28
92 -14 22 20 13 52 -14z m1966 4 c-4 -13 -13 -48 -20 -78 -18 -77 -23 -87 -49
-92 -22 -4 -22 -4 -9 45 7 27 18 56 25 65 11 13 10 15 -4 9 -29 -11 -21 19 13
47 38 32 54 33 44 4z m-2013 -73 c11 -15 10 -37 -2 -30 -16 10 -11 -17 7 -37
14 -16 14 -18 0 -18 -20 0 -55 49 -63 90 -7 31 -7 31 22 18 16 -7 32 -17 36
-23z m2073 8 c-9 -37 -47 -93 -63 -93 -10 0 -9 5 2 22 18 25 21 42 6 33 -6 -3
-10 4 -10 17 0 18 8 27 33 35 17 5 34 11 36 12 2 0 0 -11 -4 -26z m-1600 -103
c0 -16 -6 -26 -18 -28 -19 -4 -32 20 -23 44 9 25 41 13 41 -16z m1109 13 c9
-21 -16 -46 -37 -37 -17 6 -23 35 -10 47 12 13 41 7 47 -10z m-691 -10 c58 -4
85 -9 78 -16 -10 -10 -196 -6 -207 5 -11 12 8 29 25 23 9 -4 56 -10 104 -12z
m347 -6 c0 -15 -205 -23 -214 -8 -9 14 22 21 74 17 25 -2 63 -1 85 3 44 8 55
6 55 -12z m487 1 c-3 -8 -6 -5 -6 6 -1 11 2 17 5 13 3 -3 4 -12 1 -19z m-1363
-4 c18 -7 22 -59 6 -69 -15 -9 -42 15 -36 32 3 7 1 13 -4 13 -16 0 -21 -19
-10 -41 10 -18 18 -20 51 -15 44 7 94 -10 123 -42 22 -25 15 -52 -13 -52 -23
0 -35 -28 -20 -46 6 -8 22 -14 35 -14 13 0 63 -23 111 -50 195 -112 416 -142
618 -85 65 19 209 87 237 112 10 9 35 19 56 22 28 5 38 11 40 29 3 16 -4 25
-23 32 -33 13 -31 45 6 73 19 14 42 19 82 18 37 0 59 5 67 14 14 17 7 45 -11
45 -8 0 -8 -4 -1 -13 18 -21 -1 -41 -27 -28 -44 24 -10 77 40 64 10 -3 61 -46
113 -96 67 -64 96 -99 96 -115 0 -12 -15 -39 -33 -59 -48 -52 -69 -43 -157 67
-75 94 -101 110 -149 94 -35 -13 -39 -40 -7 -48 27 -7 172 -166 187 -204 14
-36 -9 -75 -52 -89 -20 -6 -61 -27 -90 -46 -272 -174 -556 -223 -851 -147
-127 33 -221 74 -318 140 -30 20 -72 42 -93 49 -41 14 -67 44 -67 77 0 26 145
198 183 216 15 7 27 18 27 25 0 20 -48 46 -72 40 -13 -4 -60 -51 -106 -107
-46 -55 -90 -100 -98 -100 -43 0 -94 52 -94 94 0 18 162 176 203 199 37 20 31
19 51 11z m1486 -34 c-7 -17 -14 -29 -16 -27 -2 2 1 18 7 36 6 18 14 30 17 27
2 -3 -1 -19 -8 -36z m-840 0 c0 -21 -15 -27 -25 -10 -7 12 2 30 16 30 5 0 9
-9 9 -20z m-552 -93 c8 -9 4 -16 -16 -25 -15 -7 -49 -40 -77 -72 -46 -55 -50
-58 -67 -43 -16 14 -14 19 39 84 45 54 63 69 84 69 14 0 31 -6 37 -13z m1161
4 c9 -5 38 -37 64 -70 44 -56 46 -61 29 -70 -17 -9 -27 -2 -71 49 -29 33 -64
63 -78 66 -25 7 -25 8 -8 20 22 16 40 18 64 5z m-975 -49 c14 -21 26 -49 25
-63 -1 -21 -2 -20 -16 11 -19 42 -28 26 -14 -24 9 -36 6 -42 -16 -28 -8 5 -12
31 -11 75 1 37 3 67 4 67 1 0 13 -17 28 -38z m755 11 c-1 -16 1 -43 5 -61 6
-25 4 -38 -10 -53 -26 -29 -33 -23 -23 19 13 57 9 71 -9 32 -15 -32 -16 -33
-20 -12 -3 20 41 102 55 102 2 0 3 -12 2 -27z m50 -69 c-10 -27 -12 -27 -19
-9 -5 13 -2 26 8 38 21 23 26 9 11 -29z m-869 21 c6 -8 8 -20 4 -26 -5 -9 -11
-7 -21 6 -23 33 -9 51 17 20z m173 -55 c46 -57 61 -95 34 -84 -7 2 -19 20 -25
38 -7 18 -21 41 -31 50 -19 17 -19 16 -14 -26 4 -40 3 -42 -11 -24 -16 20 -23
107 -8 105 4 0 28 -27 55 -59z m571 37 c6 -27 -11 -97 -24 -97 -13 0 -13 37 1
62 9 16 8 19 -3 16 -7 -2 -26 -28 -41 -56 -28 -51 -47 -66 -47 -38 0 8 20 38
45 67 25 29 45 56 45 61 0 18 18 6 24 -15z m-466 -120 c2 -10 -3 -17 -12 -17
-10 0 -16 9 -16 21 0 24 23 21 28 -4z m330 0 c2 -10 -3 -17 -12 -17 -10 0 -16
9 -16 21 0 24 23 21 28 -4z"/>
<path d="M674 1608 c8 -13 22 -49 32 -81 10 -31 22 -56 28 -54 6 2 20 38 32
80 17 61 19 77 8 77 -8 0 -14 -10 -14 -24 0 -36 -12 -86 -20 -86 -11 0 -30 57
-30 86 0 19 -5 24 -25 24 -24 0 -25 -1 -11 -22z"/>
<path d="M845 1550 l0 -80 32 -6 c41 -8 63 0 63 23 0 13 -3 14 -12 5 -7 -7
-23 -12 -36 -12 -20 0 -23 4 -20 33 2 22 8 32 20 32 10 0 18 5 18 10 0 5 -8
10 -18 10 -11 0 -17 8 -17 25 0 20 5 25 23 23 12 -2 22 2 22 7 0 6 -17 10 -37
10 l-38 0 0 -80z"/>
<path d="M1360 1631 c-24 -6 -25 -9 -25 -84 0 -66 2 -77 17 -77 14 0 16 6 12
30 -4 19 -2 30 4 30 7 0 18 -13 27 -30 9 -16 20 -30 26 -30 6 0 9 3 7 8 -2 4
-10 19 -17 34 -13 25 -12 30 3 47 33 37 -3 84 -54 72z m48 -37 c4 -25 -24 -52
-39 -37 -6 6 -7 22 -3 37 8 32 37 32 42 0z"/>
<path d="M1515 1551 c0 -65 3 -81 16 -84 14 -4 15 5 11 64 -3 47 -1 74 8 84
11 13 9 15 -11 15 -23 0 -24 -3 -24 -79z"/>
<path d="M955 992 c-8 -22 -6 -27 7 -14 7 7 18 12 26 12 12 0 14 -15 10 -80
-4 -69 -2 -80 12 -80 13 0 16 12 15 78 0 68 2 77 18 74 9 -2 17 3 17 10 0 18
-98 18 -105 0z"/>
<path d="M1232 988 c-21 -21 -13 -46 23 -74 19 -14 35 -33 35 -41 0 -22 -29
-27 -50 -8 -19 17 -20 17 -20 -2 0 -14 8 -22 23 -25 72 -14 95 53 32 92 -45
28 -48 55 -5 47 22 -5 30 -3 30 8 0 18 -51 20 -68 3z"/>
<path d="M230 614 c22 -20 43 -34 47 -30 10 10 -48 66 -69 66 -13 0 -8 -9 22
-36z"/>
<path d="M2037 635 c-20 -14 -37 -32 -37 -40 0 -24 13 -18 55 25 45 46 37 52
-18 15z"/>
<path d="M586 350 c-27 -44 -53 -80 -59 -80 -6 0 -2 -6 8 -14 17 -12 21 -10
38 23 28 53 31 54 70 31 36 -21 36 -22 22 -50 -8 -15 -21 -34 -29 -42 -12 -13
-11 -16 5 -26 14 -9 19 -9 19 -1 0 6 21 45 46 87 33 55 42 77 33 83 -8 5 -18
-2 -26 -19 -22 -42 -28 -44 -66 -22 l-36 21 21 35 c12 21 17 39 12 44 -6 6
-29 -23 -58 -70z"/>
<path d="M1570 377 c-74 -39 -73 -31 -18 -119 27 -43 46 -83 43 -88 -3 -5 15
3 40 17 53 29 65 48 65 98 0 29 -8 45 -34 71 -37 37 -57 41 -96 21z m68 -32
c16 -13 35 -38 42 -55 11 -28 11 -34 -7 -58 -33 -45 -48 -39 -97 35 -45 68
-45 68 -24 86 28 23 51 21 86 -8z"/>
<path d="M778 241 c-37 -44 -64 -82 -61 -84 3 -3 16 7 30 23 21 26 27 28 49
18 22 -10 25 -17 22 -46 -3 -23 1 -36 11 -42 14 -7 16 6 18 101 2 60 2 109 0
109 -1 0 -32 -36 -69 -79z m44 -5 c-3 -27 -7 -33 -23 -29 -23 6 -23 8 -1 38
23 33 29 31 24 -9z"/>
<path d="M1378 288 c-22 -8 -25 -12 -15 -22 7 -7 24 -47 37 -89 15 -46 31 -77
39 -77 9 0 11 7 6 23 -23 75 -15 85 37 42 16 -14 42 -25 56 -25 25 1 26 1 7
12 -70 37 -81 50 -77 84 7 58 -25 76 -90 52z m56 -13 c26 -27 30 -57 10 -72
-17 -13 -21 -11 -37 27 -24 54 -8 80 27 45z"/>
<path d="M923 188 c-15 -68 -18 -95 -9 -100 16 -11 28 -10 21 2 -10 17 5 70
20 70 7 0 19 -17 25 -37 11 -35 34 -63 50 -63 4 0 -4 23 -18 50 l-25 51 22 22
c39 42 25 79 -34 91 l-31 7 -21 -93z m75 55 c14 -24 -5 -73 -29 -73 -20 0 -23
10 -13 59 7 34 28 41 42 14z"/>
<path d="M1056 249 c7 -8 24 -54 39 -102 15 -48 30 -85 33 -82 3 3 22 46 43
95 28 67 34 90 23 90 -8 0 -13 -3 -12 -7 2 -5 -8 -37 -21 -72 -26 -72 -32 -69
-52 21 -7 32 -16 58 -20 58 -4 0 -16 3 -26 7 -15 5 -16 4 -7 -8z"/>
<path d="M1260 260 c-1 -3 -9 -49 -19 -102 -11 -65 -14 -98 -7 -98 6 0 11 14
12 30 1 35 1 35 31 44 19 6 25 1 39 -28 10 -20 22 -32 30 -29 10 4 3 25 -26
81 -40 78 -59 111 -60 102z m25 -110 c-3 -6 -13 -10 -22 -10 -11 0 -14 6 -9
23 3 12 6 29 6 37 1 8 8 3 16 -13 8 -15 12 -32 9 -37z"/>
<path d="M355 360 c-3 -5 1 -10 9 -10 9 0 16 5 16 10 0 6 -4 10 -9 10 -6 0
-13 -4 -16 -10z"/>
<path d="M1900 360 c0 -5 7 -10 16 -10 8 0 12 5 9 10 -3 6 -10 10 -16 10 -5 0
-9 -4 -9 -10z"/>
</g>
</svg>
