<?xml version="1.0" standalone="no"?>
<!DOCTYPE svg PUBLIC "-//W3C//DTD SVG 20010904//EN"
 "http://www.w3.org/TR/2001/REC-SVG-20010904/DTD/svg10.dtd">
<svg version="1.0" xmlns="http://www.w3.org/2000/svg"
 width="1200.000000pt" height="1348.000000pt" viewBox="0 0 1200.000000 1348.000000"
 preserveAspectRatio="xMidYMid meet">

<g transform="translate(0.000000,1348.000000) scale(0.100000,-0.100000)"
fill="#000000" stroke="none">
<path d="M1180 10528 c0 -1799 4 -2935 10 -3038 47 -768 186 -1414 447 -2075
72 -183 266 -590 354 -745 l43 -74 -35 20 c-134 78 -335 116 -509 95 -176 -22
-259 -59 -352 -161 -49 -53 -77 -101 -159 -265 -200 -405 -292 -535 -614 -865
-202 -206 -225 -241 -232 -349 -10 -136 58 -246 321 -523 323 -341 674 -658
986 -892 828 -620 1735 -1046 2806 -1315 334 -84 655 -129 1249 -177 434 -34
684 -29 1270 26 413 39 663 79 970 156 1415 354 2672 1063 3695 2084 304 304
423 485 437 665 12 149 -29 242 -193 440 -288 349 -399 514 -550 821 -95 194
-123 241 -173 296 -106 115 -216 154 -436 152 -174 -1 -253 -21 -417 -102 -65
-32 -118 -57 -118 -55 0 2 34 67 75 145 351 657 583 1377 694 2154 70 488 65
233 68 3502 l3 2952 -4820 0 -4820 0 0 -2872z m5496 2514 c9 -45 -8 -129 -42
-212 -14 -34 -23 -64 -20 -67 2 -3 61 21 129 51 69 31 163 66 209 78 98 24
181 22 378 -12 93 -16 152 -21 230 -17 118 4 143 12 335 98 165 74 239 93 326
86 72 -6 148 -32 133 -46 -5 -4 -38 -18 -74 -31 -84 -29 -162 -76 -263 -159
-133 -109 -189 -148 -252 -179 -104 -51 -144 -56 -407 -48 -131 4 -238 3 -238
-1 0 -5 30 -23 66 -41 82 -41 149 -103 220 -204 30 -43 63 -84 74 -91 11 -6
20 -15 20 -18 0 -4 -22 -16 -49 -28 -87 -37 -252 -24 -378 30 -23 10 -127 71
-230 135 -220 137 -244 148 -383 180 -345 78 -820 42 -1079 -84 -169 -82 -252
-229 -188 -334 44 -73 132 -117 277 -139 113 -16 251 -7 558 36 139 19 266 35
282 35 17 0 30 3 30 6 0 18 -23 43 -49 54 -39 16 -32 27 22 35 32 5 64 -1 137
-24 52 -17 98 -27 101 -23 4 4 12 23 18 43 16 51 68 129 85 129 8 0 56 -18
106 -40 107 -47 164 -62 195 -50 16 6 44 -1 106 -25 150 -61 321 -72 422 -27
50 22 127 78 127 92 0 4 -14 13 -31 20 -62 26 -186 170 -146 170 6 0 68 -27
137 -59 69 -33 146 -65 173 -72 68 -17 80 -4 76 80 -2 82 -1 91 11 91 6 0 45
-20 88 -45 122 -70 266 -111 347 -98 45 7 45 23 0 113 -31 62 -44 110 -30 110
3 0 40 -18 83 -39 150 -76 267 -116 292 -101 8 5 7 23 -5 70 -9 34 -15 68 -13
76 2 9 44 -22 111 -82 59 -52 112 -94 118 -92 6 2 28 51 49 109 39 111 59 151
73 146 5 -1 18 -27 31 -57 40 -100 136 -214 213 -254 42 -21 48 -11 73 105 16
74 28 106 58 148 45 64 70 79 56 35 -5 -16 -9 -83 -8 -149 1 -136 14 -178 77
-250 l35 -40 38 20 c27 14 51 41 81 92 37 61 52 76 96 97 29 14 96 35 150 46
119 26 172 47 221 91 l37 32 -18 -39 c-51 -114 -105 -171 -218 -234 -93 -51
-121 -76 -145 -125 -19 -39 -22 -61 -21 -159 2 -151 -10 -202 -69 -289 -27
-40 -47 -73 -45 -75 8 -9 69 34 160 113 149 130 147 130 400 127 164 -2 223 1
269 13 32 9 61 14 63 11 10 -10 -97 -134 -141 -164 -64 -42 -125 -59 -271 -71
-155 -14 -204 -29 -295 -92 -128 -88 -186 -110 -410 -156 -126 -26 -151 -28
-375 -27 -209 0 -272 4 -490 32 -138 18 -266 32 -284 32 -31 0 -33 -2 -26 -27
9 -41 147 -175 246 -242 98 -67 203 -112 338 -149 82 -22 117 -26 246 -26 170
-1 190 3 500 104 245 79 314 93 433 88 79 -3 108 -9 157 -31 61 -29 169 -123
158 -140 -3 -5 -25 -6 -48 -2 -87 12 -66 -33 59 -131 57 -45 91 -80 108 -112
30 -54 43 -117 28 -127 -5 -3 -35 2 -65 11 -30 10 -58 15 -61 11 -4 -4 13 -37
38 -74 54 -83 68 -107 79 -145 l8 -30 -54 7 c-30 3 -55 3 -56 -2 0 -4 -3 -29
-5 -54 l-5 -47 37 -7 c35 -6 94 -52 94 -73 0 -5 -14 -15 -30 -22 -42 -18 -76
-61 -96 -124 l-17 -53 -36 8 c-21 5 -47 20 -62 38 -32 38 -47 39 -55 4 -24
-109 -85 -236 -119 -249 -8 -3 -40 3 -71 14 -42 14 -66 17 -93 11 -63 -15 -64
-14 -57 38 3 25 24 80 47 121 22 40 38 76 35 79 -2 3 -23 -9 -44 -27 -29 -23
-46 -48 -62 -93 -27 -73 -71 -121 -125 -136 -48 -13 -74 2 -119 70 -16 24 -42
60 -57 81 -21 27 -25 38 -16 45 7 6 89 40 182 76 94 37 176 71 184 76 17 11
41 112 41 179 0 118 -48 206 -139 256 -152 82 -335 85 -989 16 -152 -16 -356
-35 -453 -42 -315 -21 -504 13 -699 127 -103 61 -236 189 -270 258 -25 53 -32
143 -16 210 7 32 6 37 -10 37 -13 0 -25 -14 -37 -44 l-18 -43 -137 29 c-126
28 -149 29 -287 25 -333 -10 -637 -119 -1202 -430 -243 -134 -433 -201 -638
-226 -159 -19 -436 -12 -582 15 l-36 7 5 -46 c3 -27 25 -84 52 -137 25 -50 51
-113 57 -141 10 -47 9 -52 -17 -91 -45 -64 -217 -180 -244 -163 -4 3 -11 19
-15 35 -11 51 -35 30 -35 -31 0 -68 -55 -147 -137 -194 -52 -31 -63 -31 -63
-2 0 13 -24 57 -52 97 l-53 75 -11 -52 c-17 -76 -43 -114 -104 -150 -65 -39
-70 -40 -70 -9 0 57 -44 135 -87 155 -32 14 -39 9 -47 -34 -9 -49 -58 -101
-127 -136 -32 -16 -63 -29 -68 -29 -5 0 -9 32 -9 73 2 118 -44 181 -78 105
-24 -53 -104 -123 -162 -141 -51 -16 -112 -29 -112 -23 0 2 11 38 25 80 28 86
31 133 12 160 -13 17 -14 16 -27 -13 -28 -70 -165 -169 -259 -187 -30 -6 -31
-5 -22 17 31 79 47 103 103 160 l63 64 -30 6 c-17 4 -74 7 -127 8 l-98 1 0
-50 c0 -56 -18 -107 -44 -129 -18 -15 -28 -12 -92 29 -17 11 -58 24 -90 28
l-59 8 3 48 c2 38 9 57 38 92 20 25 34 47 30 51 -3 3 -46 -22 -96 -56 -161
-111 -280 -152 -347 -118 -44 23 -83 79 -83 119 0 29 6 37 37 55 21 12 82 36
135 53 103 34 134 54 102 67 -9 3 -42 1 -73 -6 -191 -42 -183 -41 -217 -26
-18 7 -49 35 -69 62 -33 44 -36 52 -31 102 8 92 6 92 232 22 434 -132 512
-146 804 -146 274 0 321 9 563 105 95 37 175 66 178 64 4 -2 10 -25 13 -51 11
-77 15 -84 36 -73 24 13 115 137 140 191 22 49 27 163 9 238 -5 24 -8 46 -5
48 3 3 34 -25 70 -62 83 -85 96 -122 75 -206 -18 -66 -15 -68 46 -40 105 48
173 181 164 318 -4 44 -2 50 12 43 23 -13 34 -30 54 -83 10 -26 23 -46 29 -44
6 2 25 31 41 64 17 33 51 80 76 105 55 53 89 134 89 212 0 32 8 72 20 98 11
25 23 78 26 119 5 48 13 82 26 98 23 30 53 128 62 201 l7 56 212 -23 c117 -12
284 -27 372 -34 304 -23 704 8 1196 91 551 92 828 121 1169 121 324 1 531 -23
989 -113 398 -78 731 -61 887 45 79 54 107 97 112 173 6 86 -16 141 -75 194
-126 111 -349 158 -693 146 -202 -6 -221 -9 -710 -109 -179 -37 -566 -107
-860 -157 -294 -50 -634 -109 -755 -131 -360 -66 -468 -80 -670 -86 -271 -8
-419 21 -569 109 -204 120 -302 327 -236 501 60 159 210 274 445 341 118 34
190 48 500 102 369 64 491 96 627 166 48 25 98 61 130 94 53 54 53 54 70 33
10 -11 20 -37 24 -57z m-2897 -182 c22 -57 44 -106 49 -108 6 -2 16 16 22 40
6 24 23 74 38 112 l26 69 19 -43 c10 -23 29 -85 42 -137 13 -52 26 -97 29
-100 9 -10 24 7 51 59 48 92 56 96 84 41 22 -45 41 -128 41 -183 0 -55 18 -52
73 12 24 28 49 48 55 44 12 -7 32 -93 32 -141 0 -40 8 -65 22 -65 6 0 27 14
48 30 56 45 106 62 151 55 46 -8 46 -4 24 -185 -18 -144 -36 -224 -65 -279
-24 -47 -49 -57 -89 -37 -17 9 -32 16 -34 16 -2 0 4 -24 14 -52 24 -69 24
-161 0 -214 -24 -54 -83 -101 -142 -113 -43 -10 -51 -8 -103 20 -31 17 -56 26
-56 19 0 -6 9 -39 21 -73 15 -44 19 -76 16 -109 -17 -140 -137 -265 -279 -292
-41 -7 -52 2 -43 37 5 18 19 28 60 41 63 19 123 75 157 144 18 38 23 64 23
129 0 102 -14 123 -44 64 -26 -50 -54 -69 -112 -77 -36 -5 -50 -1 -79 18 -79
54 -59 127 55 193 l70 41 3 116 3 116 32 -16 c42 -21 122 -27 174 -13 69 19
135 70 153 119 10 25 35 60 63 86 55 50 68 92 16 54 -29 -22 -38 -23 -227 -23
l-197 0 -10 54 c-18 96 -31 40 -43 -183 -6 -115 -13 -211 -16 -213 -3 -3 -26
3 -53 13 -30 12 -75 19 -120 19 -40 0 -73 2 -73 5 0 3 32 106 70 229 39 123
70 228 70 232 0 23 -19 5 -34 -30 -29 -75 -75 -73 -166 8 -40 36 -54 42 -119
51 -41 6 -81 16 -89 22 -7 6 -25 33 -38 60 -37 73 -57 60 -34 -23 6 -20 28
-54 50 -75 26 -25 40 -48 40 -64 0 -92 49 -153 165 -209 47 -22 85 -46 85 -53
0 -7 -11 -44 -25 -83 -13 -38 -25 -77 -25 -86 0 -9 19 -45 42 -80 56 -87 78
-137 78 -181 0 -33 -3 -38 -32 -46 -67 -21 -87 -22 -124 -6 -126 52 -173 159
-118 266 23 45 9 53 -68 41 -55 -9 -68 -8 -99 8 -39 20 -73 66 -101 137 -16
41 -16 46 3 102 15 46 17 65 8 86 -14 37 -13 122 1 222 7 44 11 117 9 162 -3
44 -3 80 -1 80 14 0 89 -47 127 -80 51 -44 65 -44 65 0 0 38 47 187 62 196 14
9 52 -35 97 -111 18 -31 37 -53 41 -48 4 4 15 33 25 63 20 62 107 229 112 214
2 -5 21 -56 42 -114z m-1559 -197 c57 -33 69 -105 46 -280 -36 -271 -12 -401
119 -668 65 -132 128 -223 245 -354 71 -80 220 -186 330 -235 36 -15 71 -31
78 -35 8 -3 24 -32 37 -63 l23 -57 -29 6 c-16 3 -29 4 -29 2 0 -2 11 -26 25
-53 33 -65 32 -118 -2 -187 -27 -52 -30 -55 -88 -69 -32 -8 -59 -19 -59 -25 0
-16 69 -51 194 -100 180 -70 274 -81 321 -40 18 17 19 16 29 -10 6 -15 8 -31
4 -34 -3 -3 -56 -6 -117 -5 -93 1 -126 6 -196 28 l-83 28 -32 -30 c-33 -32
-75 -56 -137 -77 l-39 -14 0 134 c0 74 -2 135 -4 135 -2 0 -37 -16 -77 -35
-72 -34 -160 -48 -173 -27 -3 5 4 37 14 71 11 35 20 78 20 97 0 41 -11 43
-102 14 -69 -22 -168 -36 -192 -27 -16 6 -15 8 42 153 l21 52 -108 -6 c-71 -3
-120 -1 -145 8 l-37 12 41 35 c47 40 94 109 85 123 -4 6 -33 10 -66 10 -54 0
-172 30 -192 49 -7 7 40 54 110 108 47 36 24 55 -91 75 -53 9 -116 26 -141 38
-53 26 -50 40 16 86 36 25 55 30 123 34 46 3 80 9 79 15 -1 6 -9 29 -18 53 -8
24 -16 77 -18 118 -1 57 -5 71 -12 58 -32 -58 -111 -99 -173 -92 -25 3 -27 7
-33 63 -8 86 -16 103 -60 131 -23 14 -39 32 -39 43 0 46 98 121 157 121 15 0
47 -9 71 -20 29 -13 42 -15 42 -7 0 29 -33 56 -88 72 -124 36 -182 88 -182
166 0 118 66 177 149 135 15 -8 53 -42 84 -75 55 -60 86 -78 72 -43 -22 56
-36 137 -36 204 -1 63 4 86 23 120 44 80 131 111 198 71z m260 -98 c37 -19 70
-62 70 -91 0 -14 -29 -82 -64 -152 -63 -125 -94 -204 -117 -292 l-12 -45 -14
35 c-9 19 -18 79 -21 132 -6 118 16 410 32 420 19 13 96 9 126 -7z m1047 -169
c1 -1 -4 -20 -10 -43 -14 -52 0 -86 44 -108 41 -22 75 -12 94 25 11 21 23 30
40 30 32 0 31 -13 -5 -70 -29 -46 -31 -47 -68 -40 -88 16 -151 84 -160 171
l-5 51 34 -7 c19 -4 35 -8 36 -9z m59 -60 c6 -17 -12 -56 -27 -56 -12 0 -28
41 -22 58 7 17 42 15 49 -2z m717 -115 c5 -5 -6 -25 -25 -46 -95 -109 -298
-116 -298 -10 0 35 11 49 48 58 21 5 23 3 18 -18 -15 -57 49 -108 108 -85 31
12 60 71 50 102 -6 20 -4 21 42 14 26 -3 52 -10 57 -15z m-177 -27 c8 -32 -1
-54 -24 -54 -40 0 -59 60 -25 78 23 14 42 4 49 -24z m-983 -131 c9 -41 92
-140 143 -171 51 -31 51 -23 4 -152 -27 -74 -30 -96 -28 -170 2 -65 9 -96 27
-133 43 -89 156 -183 254 -212 39 -11 43 -16 55 -61 7 -29 10 -70 7 -101 -7
-57 -5 -59 46 -42 59 20 124 81 154 146 1 2 39 10 86 19 99 18 148 44 213 113
59 64 94 141 109 243 6 43 16 78 22 78 38 0 94 28 136 67 l48 44 18 -27 c25
-40 23 -141 -6 -216 -12 -32 -25 -58 -29 -58 -3 0 -25 19 -49 42 -23 23 -45
40 -47 37 -3 -3 8 -43 24 -89 31 -88 38 -154 19 -180 -9 -13 -11 -13 -16 0 -9
22 -69 80 -83 80 -7 0 -10 -6 -7 -12 47 -106 61 -152 65 -206 5 -72 -14 -136
-52 -171 l-24 -22 -7 48 c-13 86 -81 191 -107 165 -8 -8 -6 -23 10 -59 46
-110 64 -209 43 -242 -11 -17 -2 -24 -145 97 -54 46 -100 81 -102 79 -3 -2 14
-42 36 -88 38 -78 41 -89 38 -154 -2 -53 -10 -84 -32 -128 l-30 -58 -30 58
c-21 41 -70 98 -165 193 -75 74 -147 148 -160 165 l-23 30 4 -46 c3 -25 23
-86 46 -135 57 -126 65 -157 60 -234 -3 -50 -11 -82 -33 -125 -17 -32 -34 -58
-39 -59 -5 -1 -25 31 -45 70 -20 39 -70 110 -111 158 -101 117 -145 179 -175
243 -30 62 -41 158 -27 221 5 23 8 42 7 42 -20 0 -40 -22 -66 -71 -18 -32 -36
-59 -40 -59 -16 0 -32 45 -33 95 0 41 8 68 41 136 44 88 61 139 47 139 -5 0
-22 -24 -37 -54 -52 -100 -77 -70 -37 44 37 106 18 124 -31 28 -34 -67 -49
-65 -49 4 0 51 27 119 84 206 26 41 46 78 44 84 -2 5 -34 -27 -72 -71 -72 -86
-96 -99 -96 -53 0 79 73 239 144 319 25 28 46 54 46 57 0 14 -41 4 -109 -29
-79 -38 -92 -42 -87 -22 3 6 7 24 10 38 3 15 26 54 51 88 50 68 79 79 88 34z
m717 -161 c25 -12 36 -25 38 -44 3 -24 -1 -28 -36 -37 -21 -6 -49 -22 -62 -36
-13 -14 -27 -25 -31 -25 -10 0 -89 129 -89 146 0 22 134 19 180 -4z m-481
-234 c-21 -165 13 -247 128 -315 48 -28 75 -63 48 -63 -32 0 -132 60 -169 100
-47 52 -65 93 -72 168 -7 65 14 169 48 241 l22 46 4 -40 c2 -22 -2 -84 -9
-137z m3661 -532 c125 -16 154 -28 144 -59 -4 -12 -7 -54 -7 -94 1 -135 60
-226 260 -399 109 -94 133 -120 139 -148 10 -57 -18 -120 -62 -136 -21 -8 -24
-16 -24 -55 0 -54 -30 -143 -65 -197 l-26 -39 -31 23 c-18 12 -66 53 -107 90
-42 37 -80 67 -86 65 -5 -2 -13 -26 -16 -53 -4 -27 -14 -65 -24 -84 -34 -68
-135 -155 -155 -133 -4 4 -17 48 -29 97 -39 160 -71 189 -90 84 -15 -84 -51
-154 -108 -209 -50 -49 -93 -71 -93 -47 0 21 -48 118 -74 149 -36 43 -115 109
-130 109 -9 0 -15 -21 -20 -61 -11 -106 -49 -172 -134 -231 l-44 -30 -30 28
c-40 39 -58 75 -58 121 0 21 -4 43 -8 49 -4 6 -38 14 -76 17 l-68 6 6 -27 c13
-54 18 -122 12 -156 -10 -51 -34 -60 -91 -35 -35 16 -62 20 -108 17 l-62 -3
-13 40 c-10 31 -11 52 -3 94 6 29 8 57 5 62 -3 5 -38 -20 -77 -57 -125 -116
-196 -144 -296 -118 -75 20 -94 39 -88 86 7 54 43 92 117 126 36 17 88 40 115
53 42 19 46 23 27 26 -33 6 -117 -14 -184 -43 -64 -29 -102 -28 -170 7 -57 29
-78 54 -78 93 0 43 36 82 86 93 49 10 249 10 574 -1 285 -10 418 -1 579 40
151 38 321 129 321 173 0 9 -14 25 -31 35 -53 31 -145 129 -175 186 -26 49
-29 65 -29 145 0 81 3 96 32 150 17 33 48 79 69 103 36 39 44 44 104 51 101
13 265 12 380 -3z m-4969 -483 c58 -31 131 -105 204 -208 70 -97 67 -99 -94
-55 -126 34 -163 50 -204 89 -63 58 -67 98 -17 179 23 38 33 37 111 -5z m3523
-233 c80 -63 91 -85 53 -99 -28 -11 -189 -3 -234 11 l-33 9 42 62 c65 97 69
98 172 17z m3789 -175 c58 -15 115 -41 151 -68 19 -14 18 -15 -20 -35 -21 -11
-63 -36 -93 -56 -29 -20 -61 -36 -72 -36 -35 0 -89 33 -96 60 -19 72 7 150 50
150 13 0 49 -7 80 -15z m-3433 -1040 l0 -235 -62 46 c-164 121 -345 173 -561
161 -135 -8 -251 -34 -542 -122 -503 -153 -535 -160 -678 -152 -117 7 -250 38
-387 91 -52 21 -102 39 -111 42 -9 3 -63 -35 -143 -100 l-127 -106 -279 0
-280 0 0 -2370 0 -2370 1270 0 1270 0 0 -32 c1 -106 68 -245 162 -333 101 -96
262 -168 426 -190 l52 -7 0 -874 0 -874 -42 6 c-397 57 -999 302 -1535 625
-807 487 -1522 1155 -2025 1894 -633 929 -979 1956 -1057 3139 -7 93 -11 542
-11 1078 l0 918 2330 0 2330 0 0 -235z m1015 -57 c117 -18 263 -63 568 -177
161 -60 330 -119 377 -132 155 -40 331 -25 475 40 l65 30 -1 -1057 c-1 -581
-5 -1455 -8 -1942 l-6 -885 -105 -53 c-146 -73 -235 -95 -385 -95 -146 -1
-262 26 -580 132 -348 116 -374 122 -520 128 -221 9 -409 -38 -665 -165 -74
-37 -138 -68 -142 -70 -5 -2 -8 842 -8 1875 1 1780 2 1882 19 1955 32 135 141
248 326 338 187 91 357 114 590 78z m-1395 -94 c139 -34 280 -121 364 -222
l36 -44 0 -1948 0 -1948 -80 48 c-95 57 -202 103 -308 133 -66 18 -104 21
-272 21 -180 1 -205 -2 -315 -28 -66 -15 -249 -70 -406 -121 -351 -115 -418
-129 -599 -122 -147 5 -237 24 -351 75 l-64 29 4 1974 c2 1085 7 1984 12 1996
5 13 11 23 14 23 2 0 64 -20 137 -44 167 -56 283 -78 412 -78 124 0 188 14
559 127 448 137 541 157 692 150 55 -2 129 -12 165 -21z m3196 -339 l204 -156
0 -2026 c0 -1115 -2 -2024 -4 -2022 -2 2 -99 119 -215 259 l-211 255 0 565 c0
839 13 3280 17 3280 3 0 96 -70 209 -155z m-5278 -790 c-3 -368 -7 -1196 -7
-1840 l-2 -1170 -201 -215 c-111 -118 -204 -216 -208 -218 -4 -1 -10 28 -13
65 -9 89 -9 1969 0 3046 l6 848 63 68 c35 37 100 96 145 132 45 35 112 88 148
116 l66 52 5 -107 c3 -59 2 -408 -2 -777z m5722 -1450 l0 -2285 -1313 0 -1312
0 -2 -97 c-3 -247 -125 -394 -372 -449 -160 -36 -405 -1 -555 79 -157 83 -250
252 -231 418 l7 59 -1276 0 -1276 0 0 2265 0 2265 181 0 182 0 -49 -42 c-27
-24 -88 -78 -136 -121 l-88 -78 0 -2048 c0 -1127 -3 -2061 -6 -2077 -3 -17 0
-36 8 -47 12 -17 80 -18 1344 -17 l1330 0 -35 -71 c-31 -62 -35 -81 -35 -143
0 -60 4 -80 29 -125 16 -29 49 -71 74 -93 56 -48 185 -113 271 -134 239 -60
449 85 500 344 11 54 10 159 -2 212 -3 13 154 16 1293 20 1078 4 1299 7 1312
19 16 12 17 174 17 2132 0 1520 -3 2125 -11 2142 -6 14 -49 52 -95 87 -46 34
-84 64 -84 66 0 2 74 4 165 4 l165 0 0 -2285z m-2215 -1454 c44 -11 182 -54
307 -95 487 -163 639 -182 892 -114 43 11 125 44 183 73 l104 52 68 -81 c284
-342 362 -438 359 -441 -2 -3 -566 -5 -1253 -5 l-1248 -2 -98 132 c-54 72
-126 162 -160 201 -50 56 -60 73 -48 80 8 5 68 36 134 69 127 63 254 109 370
134 104 22 292 20 390 -3z m-1439 -46 c110 -28 222 -78 327 -147 l78 -51 -102
-96 c-56 -53 -108 -99 -114 -103 -7 -5 -46 -45 -86 -90 l-73 -83 -1220 -5
c-672 -3 -1223 -4 -1225 -2 -3 1 34 41 80 90 46 48 139 144 205 214 l121 127
84 -34 c140 -57 269 -78 434 -72 171 7 222 19 580 136 377 124 526 154 720
144 55 -3 141 -16 191 -28z m5149 -290 c141 -37 193 -99 348 -415 52 -107 120
-235 151 -283 74 -117 227 -320 370 -492 183 -221 221 -319 178 -461 -45 -146
-179 -321 -448 -584 -945 -923 -2063 -1571 -3344 -1939 -434 -124 -775 -183
-1335 -230 -487 -41 -645 -46 -925 -27 -663 44 -1031 91 -1390 177 -886 212
-1720 571 -2450 1054 -451 298 -783 577 -1240 1041 -238 242 -311 328 -358
419 -32 63 -35 142 -8 200 11 23 83 104 170 190 312 309 448 498 632 875 131
268 191 338 324 377 72 21 204 30 305 21 201 -19 428 -147 528 -298 88 -131
87 -129 17 -69 -130 110 -247 174 -415 230 -93 30 -110 33 -240 33 -123 1
-146 -2 -187 -21 -146 -67 -218 -216 -205 -426 15 -257 185 -546 516 -878 686
-685 1867 -1303 2946 -1543 864 -192 1729 -192 2660 -2 409 84 746 186 1045
318 844 372 1640 903 2096 1398 377 410 517 764 418 1055 -24 68 -111 155
-179 178 -113 39 -261 29 -446 -29 -112 -35 -310 -130 -384 -185 -88 -66 -91
-67 -56 -15 38 55 155 150 270 220 87 53 244 111 337 126 77 12 224 5 299 -15z
m-37 -207 c111 -52 152 -217 102 -414 -19 -75 -110 -273 -148 -322 l-18 -23
-143 171 c-79 93 -148 170 -152 170 -16 0 -127 -100 -185 -165 -91 -103 -164
-211 -233 -343 -76 -146 -151 -226 -248 -262 -71 -27 -150 -24 -191 7 -92 68
-113 252 -47 414 92 226 385 523 645 653 260 131 492 173 618 114z m-8970 -84
c124 -25 270 -88 369 -157 112 -79 315 -280 380 -377 109 -163 170 -317 180
-456 7 -98 -6 -142 -53 -184 -59 -51 -134 -39 -200 32 -38 39 -50 63 -99 188
-62 157 -292 600 -334 643 -5 5 -102 -110 -216 -255 -114 -145 -211 -264 -215
-266 -22 -8 -156 225 -196 343 -24 68 -28 97 -28 190 -1 105 1 114 32 177 19
38 46 77 63 89 70 49 181 61 317 33z m8727 -622 c63 -75 115 -139 115 -142 0
-4 -36 -50 -80 -103 -154 -186 -402 -417 -652 -608 l-117 -89 -138 112 c-177
145 -304 270 -331 329 -30 63 -45 151 -37 221 7 54 24 87 81 147 2 2 1 -29 -2
-70 -15 -180 60 -338 182 -385 32 -12 64 -15 123 -12 170 10 300 113 410 326
35 68 93 162 128 210 72 98 182 214 195 206 4 -3 60 -67 123 -142z m-8369
-105 c47 -93 101 -210 121 -260 52 -136 91 -203 146 -253 114 -103 265 -93
354 24 41 54 53 98 53 198 0 88 -22 190 -64 294 -25 63 -25 64 -3 39 12 -15
44 -52 71 -83 59 -69 86 -151 86 -268 0 -134 -20 -171 -174 -323 -72 -71 -167
-161 -209 -199 l-78 -69 -62 43 c-205 143 -510 414 -668 591 l-58 66 106 134
c58 74 137 174 176 223 l70 89 24 -39 c13 -21 62 -115 109 -207z m1349 -701
c539 -450 1165 -823 1839 -1095 229 -93 469 -172 624 -206 l124 -28 86 17
c285 55 817 261 1302 503 601 300 1026 607 1551 1121 l146 143 11 -65 c16 -99
65 -189 147 -271 59 -59 235 -210 338 -291 15 -12 27 -24 27 -27 0 -7 -283
-191 -405 -264 -413 -246 -873 -468 -1200 -579 -686 -234 -1580 -361 -2285
-325 -772 39 -1426 191 -2140 496 -365 156 -754 365 -1078 580 l-42 28 200
194 c243 237 262 266 268 425 l4 98 177 -172 c97 -95 235 -222 306 -282z"/>
<path d="M9821 11076 c-55 -20 -53 -39 3 -31 40 6 52 4 86 -19 23 -15 42 -37
46 -52 5 -19 9 -22 15 -12 12 19 10 60 -4 78 -37 48 -83 59 -146 36z"/>
<path d="M7297 10553 c-14 -14 -6 -22 27 -29 45 -8 66 -32 69 -79 2 -34 -2
-41 -33 -62 -19 -13 -36 -28 -38 -34 -5 -13 52 -11 83 3 31 14 39 42 33 110
-7 65 -40 98 -97 98 -21 0 -41 -3 -44 -7z"/>
<path d="M7635 8200 c-126 -16 -254 -32 -283 -35 -67 -8 -84 -33 -57 -86 10
-18 23 -39 31 -46 18 -18 53 -116 70 -193 18 -87 18 -251 -1 -325 -47 -185
-203 -349 -374 -395 -25 -6 -82 -12 -128 -11 -45 0 -85 -5 -89 -10 -11 -18 31
-72 71 -93 33 -17 57 -21 135 -21 81 1 103 5 151 27 120 55 287 257 348 421
l11 27 173 0 174 0 7 -102 c11 -174 44 -280 106 -331 34 -29 60 -26 60 7 0 11
-11 75 -24 141 -44 222 -50 295 -37 522 14 251 27 371 47 439 26 85 22 89 -76
91 -47 1 -188 -12 -315 -27z m269 -160 c-1 -89 -9 -117 -38 -124 -24 -6 -195
-29 -296 -41 l-56 -6 -12 48 c-7 27 -24 73 -38 102 -13 30 -23 56 -21 58 2 2
82 8 178 14 96 5 183 11 194 13 11 2 36 3 55 2 l35 -1 -1 -65z m-24 -273 c0
-30 -3 -88 -6 -130 l-7 -77 -163 0 -164 0 0 110 c0 98 2 110 18 110 38 0 295
30 300 35 15 15 22 0 22 -48z"/>
<path d="M6850 8089 c-165 -23 -236 -28 -307 -24 -107 7 -133 -2 -133 -44 0
-31 48 -81 76 -81 49 0 60 -260 28 -677 l-7 -93 24 0 c13 0 43 15 67 34 49 39
56 41 317 57 99 6 183 14 187 18 5 4 10 144 13 311 3 168 11 352 17 408 9 87
9 105 -3 113 -19 12 -34 11 -279 -22z m175 -154 l0 -69 -175 -23 c-238 -30
-216 -32 -224 25 -4 26 -9 55 -12 64 -3 11 4 23 20 33 31 20 205 44 311 42
l80 -2 0 -70z m-1 -187 c9 -34 7 -121 -3 -137 -8 -12 -281 -50 -364 -51 l-28
0 3 82 3 82 31 8 c49 13 234 36 295 37 51 1 57 -1 63 -21z m4 -295 c5 -88 7
-87 -185 -101 -92 -7 -178 -15 -191 -18 -23 -6 -23 -6 -16 62 4 38 12 72 18
76 20 13 227 36 311 34 l60 -1 3 -52z"/>
<path d="M7569 6718 c-28 -9 -44 -36 -54 -91 l-7 -34 -75 -7 c-42 -3 -111 -6
-154 -6 -74 0 -79 -1 -98 -29 -30 -42 -32 -75 -4 -79 12 -2 33 4 46 13 17 11
61 17 150 22 l127 6 0 -55 0 -55 -62 -7 c-59 -6 -217 -39 -315 -65 -40 -11
-43 -14 -43 -45 0 -32 39 -167 62 -210 30 -59 46 -66 142 -66 117 0 486 27
551 41 28 5 57 15 66 22 34 26 62 108 75 224 6 57 5 62 -16 73 -38 20 -169 39
-272 40 l-98 0 0 50 c0 28 1 50 3 50 1 1 86 5 189 9 169 8 189 10 218 31 57
41 39 45 -188 41 l-212 -3 15 42 c28 80 14 108 -46 88z m71 -492 c0 -74 -4
-107 -13 -115 -8 -6 -47 -12 -88 -13 l-74 -3 -3 92 c-4 132 2 139 121 142 l57
1 0 -104z m226 90 c8 -22 -15 -159 -29 -173 -7 -7 -38 -15 -69 -19 l-58 -7 0
107 0 106 75 0 c57 0 77 -4 81 -14z m-487 -48 c19 -62 23 -142 8 -162 -17 -24
-102 -32 -136 -14 -27 14 -59 92 -60 145 -1 29 3 33 37 42 64 16 76 19 109 20
27 1 33 -3 42 -31z"/>
<path d="M6785 6508 c-16 -5 -77 -13 -135 -16 -117 -8 -131 -19 -72 -58 48
-32 129 -40 210 -20 87 21 114 40 110 74 -3 24 -8 27 -43 29 -22 1 -53 -3 -70
-9z"/>
<path d="M6780 6219 c-59 -14 -276 -39 -347 -39 -15 0 -53 -36 -53 -49 0 -19
53 -71 72 -71 11 0 54 14 96 30 75 31 275 70 288 57 4 -4 2 -25 -5 -46 -27
-91 -179 -273 -263 -315 -70 -35 -146 -35 -214 -1 -27 14 -51 25 -53 25 -2 0
-1 -16 2 -35 14 -85 87 -134 197 -135 146 0 264 102 370 320 48 99 95 243 86
265 -7 20 -80 18 -176 -6z"/>
<path d="M7856 5975 c-10 -27 3 -40 69 -73 104 -51 147 -36 93 33 -38 49 -148
76 -162 40z"/>
<path d="M7539 5927 c-19 -13 -34 -31 -34 -42 0 -18 7 -20 90 -20 95 0 115 6
115 36 0 47 -114 65 -171 26z"/>
<path d="M7028 5805 c-76 -58 -138 -112 -138 -120 0 -15 37 -45 57 -45 7 0 62
43 124 95 61 52 119 95 129 95 10 0 115 -49 233 -109 322 -164 411 -185 534
-131 92 40 163 116 163 172 l0 29 -42 -26 c-61 -37 -125 -65 -180 -76 -100
-22 -288 30 -543 148 -77 36 -153 67 -170 69 -25 4 -51 -12 -167 -101z"/>
<path d="M5016 8118 c-20 -69 -60 -130 -130 -198 -64 -63 -72 -86 -25 -76 53
10 100 38 160 93 l57 54 124 -3 c105 -3 123 -5 126 -20 2 -9 -27 -71 -65 -138
l-68 -122 -197 5 -196 6 -16 -40 c-31 -78 -19 -92 52 -64 29 12 70 15 171 13
l133 -3 -53 -70 c-116 -155 -309 -316 -414 -345 -38 -11 -56 -10 -108 3 -34 8
-70 18 -79 22 -14 6 -18 2 -18 -15 0 -54 126 -123 221 -122 57 1 144 52 243
143 47 43 93 79 101 79 18 0 24 -13 65 -147 46 -146 41 -143 215 -143 140 0
145 1 160 23 16 25 69 245 81 332 9 77 4 79 -200 83 -94 2 -177 5 -184 8 -10
3 -9 11 8 32 11 15 37 51 57 80 l36 52 177 0 c201 0 200 0 225 84 16 53 8 57
-39 21 -32 -24 -39 -25 -174 -25 -78 0 -142 2 -142 4 0 16 145 275 165 296 32
34 26 52 -29 80 l-42 23 -46 -26 c-41 -25 -54 -27 -151 -27 -97 0 -106 2 -112
20 -8 24 -53 80 -65 80 -5 0 -15 -24 -24 -52z m381 -744 c14 -3 25 -14 29 -30
7 -28 -10 -118 -32 -172 l-13 -33 -77 3 -78 3 -23 47 c-26 52 -39 123 -29 162
5 19 14 26 39 29 34 5 146 -1 184 -9z"/>
<path d="M4366 8118 c-13 -18 -16 -49 -16 -145 l0 -122 -136 -3 -137 -3 -48
-85 c-26 -47 -44 -86 -39 -88 5 -2 31 8 58 22 48 24 223 66 277 66 27 0 27 -1
20 -47 -13 -91 -50 -141 -175 -238 -73 -56 -155 -97 -265 -130 -50 -16 -92
-30 -94 -31 -9 -8 27 -38 64 -55 114 -52 244 8 387 178 41 49 75 80 80 75 12
-12 12 -370 -1 -411 -19 -63 18 -72 48 -12 28 53 42 145 49 320 l7 151 59 -39
c95 -64 206 -83 126 -22 -19 14 -65 52 -102 84 l-68 58 0 64 0 64 33 5 c17 3
56 7 86 10 58 6 109 32 94 47 -5 5 -55 12 -111 16 l-102 6 0 116 c0 73 -5 125
-13 141 -17 34 -60 39 -81 8z"/>
<path d="M4836 6528 c-2 -7 -9 -51 -15 -98 -13 -105 -66 -219 -141 -302 -50
-57 -56 -78 -21 -78 27 0 108 58 149 106 36 43 37 44 99 44 75 0 75 1 32 -110
-39 -101 -110 -211 -182 -278 -54 -50 -163 -112 -199 -112 -28 0 -30 -18 -3
-36 29 -19 66 -14 152 17 72 27 146 85 199 156 49 65 134 230 162 313 l19 55
81 3 c51 2 82 -1 82 -7 0 -21 -63 -168 -106 -251 -65 -121 -147 -232 -238
-317 -43 -40 -76 -76 -73 -79 10 -11 111 16 152 41 115 67 254 284 351 547 32
86 22 80 146 93 31 3 58 2 61 -2 19 -31 -151 -414 -218 -490 -40 -47 -56 -51
-128 -29 -26 8 -47 11 -47 7 0 -3 13 -22 29 -42 39 -47 90 -74 125 -65 41 10
113 82 151 150 77 140 215 476 215 526 0 11 -12 32 -26 47 -29 29 -55 29 -211
-1 -108 -20 -347 -38 -448 -34 -79 3 -80 3 -78 28 2 14 5 57 9 96 8 86 -3 114
-47 114 -16 0 -31 -6 -33 -12z"/>
<path d="M4362 6517 c-6 -7 -13 -62 -14 -123 l-3 -109 -82 -3 -83 -3 0 44 c0
47 -17 71 -46 65 -13 -2 -27 -33 -51 -106 -18 -56 -56 -140 -83 -186 -53 -89
-59 -113 -35 -122 39 -15 141 70 178 149 16 32 20 35 78 41 34 3 77 6 95 6
l34 0 0 -99 0 -100 -62 -45 c-77 -54 -191 -112 -277 -140 -38 -13 -70 -30 -78
-43 -14 -20 -13 -24 14 -49 25 -23 34 -25 76 -20 63 7 137 41 227 105 40 28
77 48 83 44 6 -4 8 -45 4 -113 -6 -115 1 -142 30 -124 25 15 39 62 61 207 l19
125 56 62 c55 61 84 115 68 125 -5 2 -27 -9 -50 -25 -22 -17 -43 -30 -46 -30
-7 0 -6 71 1 108 6 28 11 32 63 43 77 15 121 35 121 53 0 20 -40 30 -122 31
l-68 0 0 107 c0 99 -2 108 -22 122 -27 19 -72 21 -86 3z"/>
<path d="M10850 3510 c-1 -3 -7 -25 -13 -49 -12 -46 -18 -49 -89 -65 -39 -9
-95 -61 -129 -120 -64 -113 -20 -296 71 -296 17 0 77 12 133 27 78 20 127 27
208 27 98 1 108 -1 146 -26 49 -32 78 -88 77 -149 -1 -92 -79 -154 -194 -153
-36 0 -76 6 -89 13 -20 11 -23 11 -19 0 3 -8 20 -60 39 -116 18 -57 36 -103
40 -103 4 0 9 13 12 30 5 24 18 35 67 60 133 67 183 146 184 290 0 65 -4 95
-20 130 -30 66 -72 110 -129 136 -75 35 -154 32 -301 -11 -132 -39 -165 -42
-188 -19 -26 25 -19 61 20 103 45 51 105 74 178 69 31 -1 56 -1 56 2 -1 13
-58 224 -60 220z"/>
<path d="M1057 3366 c-99 -36 -111 -87 -78 -331 11 -80 0 -191 -25 -254 -46
-115 -163 -121 -217 -11 -18 38 -22 62 -22 147 l0 102 -45 -26 c-78 -45 -150
-93 -150 -99 0 -3 16 -4 37 -2 36 3 36 2 73 -70 63 -123 122 -172 208 -172
120 0 214 61 247 161 18 53 18 137 -1 356 -11 120 14 163 94 163 39 0 50 -5
81 -38 43 -45 61 -97 61 -176 l0 -56 84 42 c47 23 83 45 80 50 -3 4 -20 8 -39
8 -32 0 -35 3 -45 41 -22 80 -74 135 -157 165 -49 17 -137 17 -186 0z"/>
<path d="M10333 2966 c-39 -34 -68 -62 -65 -63 4 -1 19 -4 33 -7 18 -4 56 -44
129 -138 57 -73 142 -180 188 -237 l84 -104 -6 -50 c-13 -117 -86 -204 -180
-214 -39 -5 -47 -2 -85 32 -42 38 -193 221 -295 358 -45 60 -60 87 -64 122 -2
25 -6 45 -8 45 -2 0 -40 -28 -85 -62 l-81 -62 39 -17 c31 -13 73 -57 190 -200
228 -278 229 -280 260 -300 36 -24 106 -24 158 0 85 38 157 155 173 278 l7 53
38 -26 c99 -67 163 -40 193 79 l7 29 -26 -26 c-53 -53 -103 -28 -214 111 -196
243 -288 369 -303 413 l-16 47 -71 -61z"/>
<path d="M1334 2749 c-325 -217 -330 -220 -377 -217 -26 2 -47 0 -47 -4 0 -9
142 -139 147 -134 3 2 0 13 -6 24 -6 11 -8 27 -5 34 3 7 56 47 118 89 l113 77
84 -74 c46 -41 85 -78 87 -82 1 -5 -22 -67 -51 -138 l-54 -129 -37 1 c-20 1
-36 -2 -36 -5 0 -4 30 -34 68 -66 106 -94 98 -91 98 -37 1 38 31 121 154 417
84 204 154 377 157 385 3 10 -12 28 -40 47 l-44 32 -329 -220z m211 -68 c-35
-85 -66 -155 -68 -157 -5 -5 -147 115 -147 124 0 8 272 193 277 189 1 -2 -26
-72 -62 -156z"/>
<path d="M1953 2682 c10 -10 17 -29 17 -42 0 -13 -63 -109 -157 -239 -256
-353 -271 -371 -298 -371 -14 0 -25 -4 -25 -8 0 -4 28 -28 62 -53 94 -67 89
-66 82 -17 -6 41 -3 48 56 128 34 47 66 89 71 94 4 5 32 -7 63 -28 75 -50 127
-67 221 -73 143 -9 241 50 281 169 30 91 -7 190 -101 276 -45 41 -263 182
-281 182 -4 0 0 -8 9 -18z m175 -162 c61 -58 102 -137 102 -196 0 -59 -44
-139 -93 -172 -35 -23 -51 -27 -116 -27 -65 1 -85 5 -137 32 -69 36 -89 56
-77 76 34 56 248 337 257 337 6 0 35 -23 64 -50z"/>
<path d="M9596 2374 c-132 -90 -242 -166 -244 -169 -4 -4 67 -115 73 -115 2 0
2 18 1 39 -1 46 12 62 90 116 47 33 57 36 68 24 20 -21 366 -565 366 -574 0
-5 -7 -16 -16 -26 -9 -10 -14 -23 -12 -29 4 -13 170 99 176 119 4 10 0 12 -14
7 -11 -4 -23 -8 -27 -9 -8 -2 -376 580 -377 595 0 13 119 88 149 94 18 4 42 0
62 -10 18 -9 34 -15 36 -13 5 5 -77 117 -85 116 -4 0 -115 -74 -246 -165z"/>
<path d="M2460 2342 c0 -6 5 -14 10 -17 6 -3 10 -23 10 -44 0 -33 -27 -80
-185 -322 -102 -156 -195 -290 -207 -296 -13 -8 -36 -10 -53 -7 -41 8 -27 -5
70 -66 87 -55 101 -60 85 -31 -5 11 -10 26 -10 34 0 13 338 551 381 606 26 32
47 41 77 30 42 -16 21 6 -41 42 -34 20 -79 47 -99 59 -21 12 -38 17 -38 12z"/>
<path d="M2700 2176 c0 -2 7 -20 15 -39 l15 -36 -141 -258 c-78 -142 -157
-282 -176 -312 l-34 -54 -44 6 c-24 4 -47 2 -50 -2 -6 -10 421 -235 466 -246
24 -6 29 -1 64 66 l38 73 -39 -32 c-21 -18 -48 -32 -59 -32 -19 0 -236 117
-257 138 -10 10 111 242 125 242 14 0 134 -69 147 -85 8 -9 10 -28 6 -50 -4
-19 -3 -35 1 -35 12 0 113 176 113 195 0 4 -14 -5 -31 -19 -17 -14 -35 -26
-40 -26 -9 0 -132 61 -157 78 -10 7 7 45 69 161 l81 152 116 -62 c65 -34 123
-66 130 -71 7 -6 12 -34 12 -67 l1 -56 38 75 39 75 -219 112 c-210 109 -229
118 -229 109z"/>
<path d="M9065 2094 c-11 -3 -96 -49 -189 -102 -166 -96 -211 -132 -150 -119
16 3 36 8 44 11 12 5 57 -73 193 -333 176 -336 178 -340 161 -366 -9 -14 -14
-25 -10 -25 3 0 44 19 92 43 76 37 82 43 58 47 -23 4 -37 24 -100 145 l-73
140 47 48 c107 110 154 104 362 -47 136 -98 153 -101 225 -46 64 49 77 65 46
55 -34 -11 -86 12 -173 77 -125 93 -185 128 -237 141 l-47 11 14 40 c20 59 10
147 -21 195 -15 23 -44 48 -71 60 -44 22 -131 34 -171 25z m105 -100 c55 -22
85 -80 85 -166 l0 -68 -85 -85 c-46 -47 -90 -85 -96 -85 -10 0 -174 303 -182
337 -3 11 94 67 148 84 30 9 80 3 130 -17z"/>
<path d="M3204 1895 c9 -13 16 -34 16 -46 0 -25 -295 -610 -313 -621 -7 -4
-28 -8 -47 -8 -21 0 -30 -4 -25 -9 18 -17 196 -91 206 -85 5 3 1 16 -10 30
-15 19 -17 31 -11 52 13 44 224 464 228 453 2 -5 27 -160 55 -342 l52 -333 64
-19 c35 -10 65 -16 68 -13 3 2 63 155 135 338 71 183 137 341 145 351 9 10 30
17 50 17 54 0 38 17 -39 40 -40 13 -92 29 -115 36 -47 14 -54 7 -23 -21 11
-10 20 -29 20 -43 0 -23 -46 -156 -154 -447 -24 -66 -47 -113 -50 -105 -2 8
-30 175 -61 370 -31 195 -57 355 -58 356 -1 0 -30 17 -63 37 -74 44 -93 48
-70 12z"/>
<path d="M8505 1808 c-119 -59 -136 -72 -80 -63 l41 7 142 -334 c78 -183 142
-340 142 -349 0 -9 -9 -24 -20 -34 -11 -10 -17 -22 -14 -26 6 -10 204 91 204
104 0 4 -13 7 -29 7 -16 0 -33 6 -38 13 -7 9 -221 500 -279 643 -3 6 7 25 21
42 14 17 22 33 18 35 -5 3 -53 -18 -108 -45z"/>
<path d="M8273 1707 c-35 -17 -63 -35 -63 -39 0 -4 14 -8 30 -8 l30 0 -5 -52
c-8 -71 -45 -615 -45 -651 0 -15 -4 -26 -9 -23 -12 8 -381 583 -381 594 0 5
10 17 23 26 22 17 21 17 -20 11 -76 -9 -223 -47 -223 -56 0 -5 21 -9 48 -9
l47 0 223 -344 223 -344 55 22 c37 14 56 28 59 41 2 11 18 198 35 415 28 344
34 399 51 423 18 25 18 27 2 26 -10 0 -46 -14 -80 -32z"/>
<path d="M3893 1571 l-20 -68 35 24 c49 33 76 38 137 24 l54 -12 -14 -47 c-8
-26 -52 -177 -99 -337 -87 -297 -95 -315 -144 -315 -46 0 -15 -22 76 -52 94
-32 118 -32 89 0 -10 10 -17 27 -17 38 0 18 189 674 197 684 2 2 36 -7 76 -20
68 -24 73 -28 97 -75 l24 -49 19 63 c10 35 15 67 10 71 -8 8 -471 140 -490
140 -5 0 -19 -31 -30 -69z"/>
<path d="M4496 1471 c-4 -6 7 -23 25 -39 l31 -28 -68 -338 c-38 -193 -73 -344
-81 -352 -8 -8 -25 -14 -39 -14 -13 0 -24 -4 -24 -10 0 -5 2 -10 4 -10 2 0 48
-9 101 -20 122 -25 123 -25 97 3 -12 13 -22 34 -22 48 0 40 122 673 133 687 5
6 20 12 33 12 12 0 25 4 29 9 9 15 -22 27 -100 40 -38 7 -80 15 -91 17 -12 3
-25 1 -28 -5z"/>
<path d="M6911 1385 c-155 -24 -285 -46 -288 -49 -3 -3 -2 -37 2 -76 l7 -72
23 38 c32 53 67 71 156 79 l76 7 6 -33 c4 -19 21 -177 38 -353 l33 -319 -35
-28 -34 -28 30 -1 c47 0 195 22 195 30 0 3 -15 13 -32 21 l-33 14 -32 305
c-17 168 -33 327 -35 355 l-3 50 90 17 c106 21 128 18 168 -25 l30 -32 -6 34
c-4 18 -7 51 -7 72 0 38 -1 39 -32 38 -18 -1 -161 -20 -317 -44z"/>
<path d="M4947 1188 c-57 -106 -144 -267 -192 -358 -90 -167 -97 -176 -150
-196 -36 -14 -31 -17 88 -43 48 -10 87 -15 87 -10 0 5 -6 12 -14 15 -30 11
-23 37 40 159 l66 126 67 -6 c36 -4 97 -10 136 -13 l70 -7 26 -138 c28 -149
27 -156 -24 -173 -18 -7 -13 -9 28 -15 77 -11 185 -10 185 1 0 6 -7 10 -15 10
-21 0 -31 24 -50 120 -16 84 -139 649 -151 696 -5 21 -12 24 -49 24 l-43 0
-105 -192z m156 -104 c15 -78 27 -147 27 -153 0 -12 -60 -14 -162 -5 l-67 7
21 41 c65 130 142 265 148 259 4 -5 19 -72 33 -149z"/>
<path d="M6419 1356 c-2 -2 -85 -9 -184 -15 -99 -6 -200 -14 -225 -17 l-44 -6
32 -26 32 -27 -1 -325 c-1 -408 -1 -407 -59 -440 l-45 -25 60 -3 c58 -3 525
15 531 21 1 1 8 43 14 92 6 50 13 101 16 115 2 14 -14 -8 -36 -47 -22 -40 -49
-77 -59 -83 -19 -10 -319 -29 -327 -21 -2 2 -4 84 -4 181 l0 177 88 6 c95 6
134 -5 140 -38 2 -11 8 -24 13 -29 5 -6 9 38 8 110 0 111 -4 121 -23 61 -8
-26 -49 -37 -142 -37 l-84 0 0 139 c0 82 4 142 10 146 5 3 72 10 147 14 150 9
142 11 176 -50 10 -17 20 -30 22 -27 3 3 2 39 -1 81 -6 71 -9 77 -29 77 -12 0
-24 -2 -26 -4z"/>
<path d="M7480 1110 c-41 -41 -13 -100 46 -100 38 0 54 16 54 55 0 58 -60 85
-100 45z"/>
<path d="M5572 958 c-22 -28 -22 -55 -1 -81 25 -32 61 -35 89 -7 24 24 25 48
4 78 -17 25 -74 31 -92 10z"/>
</g>
</svg>
