<?xml version="1.0" standalone="no"?>
<!DOCTYPE svg PUBLIC "-//W3C//DTD SVG 20010904//EN"
 "http://www.w3.org/TR/2001/REC-SVG-20010904/DTD/svg10.dtd">
<svg version="1.0" xmlns="http://www.w3.org/2000/svg"
 width="258.000000pt" height="195.000000pt" viewBox="0 0 258.000000 195.000000"
 preserveAspectRatio="xMidYMid meet">

<g transform="translate(0.000000,195.000000) scale(0.100000,-0.100000)"
fill="#000000" stroke="none">
<path d="M1059 1925 c-510 -70 -917 -374 -1021 -763 -28 -106 -28 -268 1 -375
99 -372 475 -663 976 -754 124 -23 426 -23 550 0 431 79 763 297 915 602 62
126 82 209 82 345 -2 311 -187 587 -517 772 -278 156 -642 220 -986 173z m411
-25 c330 -40 612 -166 809 -361 170 -170 251 -351 251 -564 0 -220 -84 -401
-266 -575 -176 -168 -399 -276 -679 -330 -171 -33 -419 -33 -590 0 -280 54
-503 162 -679 330 -182 174 -266 355 -266 575 0 362 262 677 699 842 204 77
495 110 721 83z"/>
<path d="M1064 1809 l-29 -31 32 19 c18 10 33 24 33 31 0 17 -3 16 -36 -19z"/>
<path d="M1156 1781 c5 -48 4 -59 -10 -64 -9 -4 -16 -12 -16 -18 0 -8 4 -9 13
0 20 16 27 3 27 -46 0 -28 4 -42 10 -38 7 4 8 28 4 65 -4 38 -3 60 5 64 6 4
11 15 10 24 0 11 -3 12 -6 5 -10 -26 -22 -12 -16 21 4 25 1 35 -11 39 -15 6
-16 0 -10 -52z"/>
<path d="M1385 1811 c-3 -12 -13 -21 -21 -21 -11 0 -12 -4 -2 -19 10 -17 7
-23 -20 -46 -18 -15 -32 -32 -32 -38 0 -6 11 0 25 13 l25 23 0 -26 c0 -14 -5
-29 -10 -32 -15 -9 -2 -25 19 -22 10 2 29 10 43 19 23 15 27 15 41 1 10 -10
22 -13 34 -8 17 6 16 8 -3 15 -30 12 -38 28 -22 47 10 13 10 17 1 20 -18 6
-16 16 8 42 11 12 18 29 15 37 -7 17 -26 19 -26 2 0 -7 -12 -23 -27 -35 -19
-15 -22 -21 -9 -16 15 5 17 2 11 -15 -4 -14 -2 -22 5 -22 6 0 8 -5 5 -10 -4
-6 -11 -7 -17 -4 -7 5 -9 1 -5 -8 6 -17 -21 -48 -41 -48 -15 0 -14 -3 -1 62 6
29 18 60 25 69 13 14 13 18 0 28 -12 10 -16 8 -21 -8z"/>
<path d="M1116 1785 c4 -8 8 -15 10 -15 2 0 4 7 4 15 0 8 -4 15 -10 15 -5 0
-7 -7 -4 -15z"/>
<path d="M1050 1744 c-19 -19 -29 -34 -23 -34 6 0 16 7 23 15 18 22 30 18 30
-10 0 -14 -5 -24 -12 -22 -6 1 -13 -5 -15 -13 -2 -10 3 -16 15 -16 12 0 22 11
29 33 6 21 6 30 0 26 -6 -4 -7 4 -3 20 9 39 -5 39 -44 1z"/>
<path d="M790 1758 c0 -7 7 -22 15 -32 17 -23 18 -26 6 -45 -8 -12 -12 -12
-25 -2 -14 12 -16 10 -16 -12 0 -37 28 -43 42 -9 l10 27 19 -40 c10 -22 19
-45 19 -51 0 -15 30 -40 30 -26 0 6 -9 31 -19 55 -17 39 -18 47 -5 57 8 8 12
21 8 36 -4 14 -1 31 6 39 10 12 10 15 -3 15 -21 0 -46 -32 -29 -37 14 -5 17
-43 2 -43 -5 0 -10 6 -10 13 0 23 -25 67 -37 67 -7 0 -13 -6 -13 -12z"/>
<path d="M1739 1732 c-22 -33 -29 -37 -67 -36 -44 1 -55 -18 -14 -24 35 -5 15
-22 -26 -23 -30 0 -33 -2 -17 -9 31 -13 40 -12 80 16 26 17 48 24 67 22 15 -3
28 -1 28 4 0 4 -9 8 -20 8 -24 0 -26 13 -5 30 17 14 20 36 6 44 -4 3 -19 -11
-32 -32z"/>
<path d="M1991 1682 c0 -13 -5 -21 -10 -17 -6 3 -15 -3 -20 -14 -14 -25 -14
-34 0 -25 6 3 15 0 20 -7 7 -11 9 -10 9 4 0 9 7 17 16 17 14 0 14 -3 4 -15
-10 -12 -10 -19 -1 -28 9 -9 17 -5 36 15 25 27 34 55 15 43 -6 -4 -18 -1 -27
7 -12 9 -15 9 -9 1 4 -8 2 -13 -8 -13 -8 0 -16 12 -19 28 -3 23 -4 23 -6 4z"/>
<path d="M550 1658 c-1 -31 -2 -32 -15 -14 -7 10 -20 16 -27 14 -8 -3 -4 -9
11 -18 l24 -12 -24 -19 c-13 -9 -21 -20 -18 -23 3 -3 22 11 43 31 27 27 34 38
24 44 -10 7 -8 9 5 9 10 0 15 5 12 10 -14 23 -35 9 -35 -22z"/>
<path d="M1717 1631 c-8 -37 -3 -51 19 -51 16 0 18 11 5 26 -5 5 -11 20 -13
34 -3 23 -4 22 -11 -9z"/>
<path d="M591 1633 c1 -23 17 -63 18 -45 1 7 5 11 10 7 6 -3 15 4 21 15 9 16
8 20 -5 20 -8 0 -15 -4 -15 -10 0 -5 -5 -10 -11 -10 -6 0 -8 9 -4 20 4 11 2
20 -4 20 -6 0 -11 -8 -10 -17z"/>
<path d="M2076 1605 c4 -10 0 -15 -12 -16 -18 0 -17 -1 1 -9 11 -5 26 -9 33
-9 18 -1 15 36 -4 43 -22 9 -24 8 -18 -9z"/>
<path d="M552 1593 c2 -12 -4 -19 -20 -21 -19 -3 -20 -5 -8 -18 8 -8 19 -14
25 -14 17 0 13 -12 -16 -42 -25 -26 -23 -38 3 -20 15 9 49 76 35 68 -6 -4 -11
0 -11 8 0 9 5 16 10 16 6 0 10 -4 10 -9 0 -5 7 -16 15 -25 14 -14 14 -17 -5
-36 -12 -12 -19 -27 -17 -33 2 -6 12 1 22 16 l18 28 28 -33 c38 -44 37 -18 -1
38 -17 24 -26 44 -20 44 5 0 10 -5 10 -11 0 -5 5 -7 10 -4 18 11 10 25 -15 25
-14 0 -30 9 -37 20 -16 25 -40 26 -36 3z"/>
<path d="M1862 1573 c2 -13 14 -19 46 -21 23 -2 42 -7 42 -11 0 -17 -50 -53
-65 -47 -13 4 -14 2 -5 -14 15 -27 18 -26 57 20 19 22 39 40 44 40 6 0 8 -4 5
-9 -3 -5 1 -12 10 -15 24 -9 26 -8 14 14 -9 17 -8 20 10 20 11 0 20 7 20 15 0
8 -6 15 -14 15 -8 0 -20 2 -28 3 -7 2 -10 2 -5 0 4 -3 7 -9 7 -15 0 -13 -93
-2 -123 13 -16 9 -18 8 -15 -8z"/>
<path d="M1115 1564 c-354 -54 -622 -224 -707 -449 -33 -87 -31 -206 6 -295
78 -191 284 -337 581 -412 80 -20 114 -23 300 -23 184 1 221 4 299 23 274 69
473 206 563 389 36 74 38 81 38 178 0 97 -2 104 -38 177 -92 187 -284 318
-567 388 -67 17 -123 22 -265 25 -99 2 -193 1 -210 -1z m380 -44 c158 -37 146
-39 -200 -39 -194 0 -324 3 -315 8 26 15 142 43 215 51 91 10 200 3 300 -20z
m-555 -25 c-14 -8 -36 -14 -50 -14 -22 0 -21 2 10 14 47 18 71 18 40 0z m740
0 c23 -9 28 -14 15 -14 -11 0 -33 6 -50 14 -39 17 -11 18 35 0z m-830 -39 c0
-2 -32 -27 -71 -56 -87 -64 -141 -132 -187 -230 -30 -64 -36 -89 -40 -167 -3
-55 0 -111 7 -139 31 -121 116 -242 228 -323 58 -42 62 -46 38 -49 -55 -7
-244 119 -317 212 -200 250 -99 555 241 727 48 25 101 38 101 25z m877 -26
c67 -39 173 -138 212 -199 83 -129 99 -285 44 -429 l-16 -42 -676 2 -676 3
-22 60 c-27 74 -30 197 -7 276 35 120 119 227 241 309 l75 50 386 0 387 0 52
-30z m141 -17 c270 -152 376 -389 272 -609 -46 -97 -166 -214 -277 -272 -44
-23 -93 -42 -108 -42 -25 0 -22 4 31 44 191 142 276 322 245 515 -22 135 -128
292 -251 371 -28 18 -50 34 -50 36 0 2 12 4 28 4 15 0 64 -21 110 -47z m-890
-730 c-8 -10 -8 -17 0 -25 7 -7 12 -16 12 -20 0 -11 -38 -10 -44 1 -3 5 -15 7
-26 4 -10 -3 -26 2 -34 10 -14 13 -14 17 -1 27 8 7 13 16 10 20 -3 4 1 13 9
19 11 9 15 9 18 0 3 -9 8 -8 18 3 13 14 17 13 32 -5 14 -15 15 -23 6 -34z
m148 11 c-3 -8 1 -14 9 -14 8 0 15 -4 15 -10 0 -5 -7 -7 -16 -3 -10 4 -17 -1
-21 -16 -6 -22 -18 -27 -28 -11 -3 6 0 10 7 11 7 1 2 4 -12 8 -14 5 -29 4 -34
-1 -22 -19 -26 -6 -7 18 12 15 21 33 21 40 0 17 53 22 63 6 5 -7 6 -20 3 -28z
m116 29 c1 -4 8 -13 17 -20 11 -9 12 -12 3 -13 -7 0 -10 -4 -7 -10 3 -5 0 -10
-8 -10 -8 0 -17 -9 -20 -20 -4 -14 -10 -18 -23 -13 -11 4 -13 8 -6 11 21 7 13
20 -10 16 -13 -2 -17 -2 -10 2 17 8 15 25 -3 18 -8 -4 -15 -1 -15 5 0 6 7 11
15 11 10 0 12 6 8 18 -6 15 -5 16 12 2 15 -12 17 -12 10 -1 -6 11 -4 13 8 8
10 -4 17 -1 17 5 0 13 11 5 12 -9z m547 -8 c6 3 19 -2 28 -11 13 -13 14 -19 5
-22 -6 -2 -12 -15 -12 -28 0 -14 -4 -22 -10 -19 -5 3 -10 15 -10 26 0 19 -1
19 -16 5 -17 -18 -64 -22 -64 -6 0 11 18 46 35 66 8 10 13 9 22 -3 6 -8 17
-12 22 -8z m-929 -30 c0 -34 -4 -45 -16 -45 -11 0 -14 6 -8 23 l6 22 -24 -23
c-22 -20 -26 -21 -32 -7 -3 9 -10 13 -16 10 -6 -4 -10 6 -10 24 0 31 5 34 67
38 33 3 33 3 33 -42z m541 28 c8 2 11 2 6 0 -4 -3 -4 -10 -1 -15 4 -7 2 -8 -4
-4 -8 4 -10 2 -6 -7 3 -8 15 -18 27 -22 13 -3 17 -8 10 -11 -7 -3 -22 0 -34 7
-19 10 -21 9 -16 -5 4 -11 1 -16 -9 -16 -11 0 -14 5 -9 18 5 14 4 15 -6 5 -19
-19 -28 -16 -21 9 7 27 35 57 43 46 3 -5 12 -7 20 -5z m129 8 c0 -5 3 -16 6
-24 6 -17 -14 -30 -61 -41 -22 -5 -26 -4 -15 4 13 9 13 10 0 10 -12 1 -12 3 3
14 9 7 17 21 17 30 0 10 8 16 25 16 14 0 25 -4 25 -9z m114 -23 c-3 -4 2 -5
10 -2 9 3 16 1 16 -5 0 -6 -7 -11 -15 -11 -9 0 -15 -7 -13 -16 4 -25 -22 -30
-29 -6 -3 14 -10 19 -21 15 -10 -4 -5 7 12 25 21 22 32 28 37 20 4 -7 5 -16 3
-20z m56 -13 c0 -40 -2 -45 -22 -44 -13 0 -17 3 -10 6 7 2 12 22 12 44 0 21 5
39 10 39 6 0 10 -20 10 -45z m-690 -25 c0 -5 -4 -10 -9 -10 -6 0 -13 5 -16 10
-3 6 1 10 9 10 9 0 16 -4 16 -10z m550 -10 c12 -8 9 -10 -12 -10 -15 0 -30 5
-33 10 -8 13 25 13 45 0z m288 -40 c8 0 -58 -51 -110 -84 l-57 -36 -386 0
c-336 0 -390 2 -418 16 -40 21 -137 92 -137 102 0 5 933 7 1108 2z m-913 -155
c23 -10 25 -13 10 -14 -11 0 -33 6 -50 14 -23 10 -25 13 -10 14 11 0 34 -6 50
-14z m673 5 c-48 -29 -197 -54 -318 -54 -122 0 -257 24 -308 53 -11 7 90 10
313 10 217 0 324 -3 313 -9z m77 -5 c-16 -8 -39 -14 -50 -14 -15 1 -13 4 10
14 17 8 39 14 50 14 15 -1 13 -4 -10 -14z"/>
<path d="M1310 1360 c-88 -11 -145 -27 -160 -45 -7 -8 -25 -15 -41 -15 -85 0
-105 -57 -34 -97 22 -13 82 -39 132 -59 105 -42 137 -69 137 -117 0 -111 -150
-167 -404 -152 -92 5 -122 3 -150 -9 -32 -14 -11 -15 281 -16 315 0 316 0 337
23 11 12 28 40 37 61 l17 39 -74 74 c-40 41 -115 104 -167 141 -52 37 -96 73
-99 79 -2 7 7 18 21 24 68 31 557 -90 532 -131 -4 -6 -48 -10 -98 -10 -68 0
-99 -4 -115 -16 -32 -22 -27 -34 14 -34 35 0 35 -1 29 -32 -4 -18 -20 -75 -35
-126 l-28 -93 46 3 46 3 35 123 34 122 33 0 c26 0 40 9 73 49 72 85 74 129 10
162 -82 41 -281 66 -409 49z"/>
<path d="M897 1093 c-3 -5 -14 -39 -26 -78 -12 -38 -24 -78 -27 -87 -4 -15 1
-18 35 -18 33 0 40 3 43 22 2 13 11 24 21 26 15 3 17 -1 11 -22 -6 -24 -4 -26
30 -26 32 0 36 3 45 38 6 20 17 60 26 87 20 66 20 65 -20 65 -34 0 -35 -1 -52
-60 -9 -35 -22 -60 -30 -60 -16 0 -16 3 1 68 l14 52 -33 0 c-19 0 -36 -3 -38
-7z"/>
<path d="M1080 1018 c-13 -46 -25 -89 -28 -95 -3 -10 18 -13 85 -13 l89 0 27
89 c15 50 27 92 27 95 0 4 -16 6 -35 6 l-34 0 -26 -85 c-18 -58 -31 -85 -41
-85 -11 0 -13 6 -8 23 14 44 34 122 34 135 0 7 -13 12 -33 12 -33 0 -33 0 -57
-82z"/>
<path d="M910 674 c0 -8 5 -12 10 -9 6 4 8 11 5 16 -9 14 -15 11 -15 -7z"/>
<path d="M1065 689 c-4 -6 -5 -12 -2 -15 2 -3 7 2 10 11 7 17 1 20 -8 4z"/>
<path d="M1087 562 c1 -8 3 -17 3 -21 0 -4 9 -7 20 -8 15 -1 20 4 20 25 0 21
-2 24 -10 12 -9 -13 -10 -13 -10 0 0 12 -2 13 -9 1 -5 -7 -11 -9 -13 -5 -3 5
-3 3 -1 -4z"/>
<path d="M1142 555 c0 -16 2 -22 5 -12 2 9 2 23 0 30 -3 6 -5 -1 -5 -18z"/>
<path d="M1162 555 c0 -16 2 -22 5 -12 2 9 2 23 0 30 -3 6 -5 -1 -5 -18z"/>
<path d="M1181 555 c0 -16 3 -24 6 -16 5 11 7 11 14 0 6 -10 8 -5 8 16 0 17
-3 24 -6 16 -5 -11 -7 -11 -14 0 -6 10 -8 5 -8 -16z"/>
<path d="M1227 573 c-12 -12 -7 -43 7 -43 9 0 12 8 8 25 -5 27 -6 28 -15 18z"/>
<path d="M1260 563 c0 -12 5 -25 10 -28 13 -8 13 15 0 35 -8 12 -10 11 -10 -7z"/>
<path d="M1330 555 c0 -17 5 -25 18 -24 10 0 12 3 5 6 -7 2 -13 11 -13 19 0 9
5 12 12 8 7 -4 8 -3 4 4 -12 20 -26 13 -26 -13z"/>
<path d="M1372 555 c0 -16 2 -24 5 -16 4 10 7 10 13 1 4 -7 8 -1 8 15 0 16 -4
22 -8 15 -6 -9 -9 -9 -13 1 -3 8 -5 1 -5 -16z"/>
<path d="M1412 555 c0 -16 2 -22 5 -12 2 9 2 23 0 30 -3 6 -5 -1 -5 -18z"/>
<path d="M1430 555 c0 -15 4 -24 10 -20 6 3 10 12 10 20 0 8 -4 17 -10 20 -6
4 -10 -5 -10 -20z"/>
<path d="M1470 555 c0 -14 5 -25 10 -25 6 0 10 11 10 25 0 14 -4 25 -10 25 -5
0 -10 -11 -10 -25z"/>
<path d="M286 1443 c-3 -3 11 -17 32 -31 20 -14 38 -26 40 -27 6 -5 -11 -35
-21 -35 -5 0 -25 11 -43 25 -19 15 -35 21 -39 15 -3 -5 -1 -10 6 -10 6 0 43
-23 81 -51 38 -28 72 -48 74 -46 3 3 -11 15 -30 27 -40 24 -38 22 -30 44 9 22
22 20 61 -10 18 -14 33 -21 33 -17 0 4 -30 28 -67 52 -36 25 -71 51 -78 57 -7
7 -15 10 -19 7z"/>
<path d="M2248 1422 c-21 -15 -37 -31 -38 -36 0 -4 -14 -26 -31 -47 -17 -21
-27 -39 -22 -39 5 0 17 14 27 31 26 44 96 110 109 102 6 -3 7 -1 3 5 -4 7 -8
12 -9 11 -1 0 -19 -13 -39 -27z"/>
<path d="M2283 1357 c-18 -12 -33 -26 -33 -30 0 -4 15 3 33 17 40 30 67 33 67
8 0 -35 -93 -102 -141 -102 -18 0 -20 4 -16 26 3 16 1 22 -5 16 -17 -17 -4
-47 22 -50 33 -3 128 52 142 83 24 53 -13 70 -69 32z"/>
<path d="M203 1325 c-3 -9 -3 -19 1 -22 3 -4 6 1 6 10 0 27 32 20 96 -21 76
-49 92 -58 79 -44 -23 23 -139 92 -157 92 -10 0 -21 -7 -25 -15z"/>
<path d="M180 1271 c0 -5 7 -12 16 -15 14 -5 15 -4 4 9 -14 17 -20 19 -20 6z"/>
<path d="M2305 1261 c-22 -10 -51 -30 -64 -44 -20 -23 -22 -29 -11 -42 18 -21
69 -13 127 21 100 58 55 114 -52 65z m100 0 c8 -14 -24 -41 -80 -67 -55 -26
-80 -30 -90 -14 -10 16 13 38 64 65 47 25 96 32 106 16z"/>
<path d="M227 1219 c-6 -21 -13 -21 -64 -2 -7 3 -13 1 -13 -4 0 -9 101 -36
108 -28 3 3 -2 5 -11 5 -19 0 -22 11 -6 27 7 7 7 13 1 17 -5 3 -12 -4 -15 -15z"/>
<path d="M337 1199 c7 -7 15 -10 18 -7 3 3 -2 9 -12 12 -14 6 -15 5 -6 -5z"/>
<path d="M2424 1177 c1 -18 -11 -25 -81 -46 -46 -13 -83 -27 -83 -31 0 -3 39
6 86 22 48 15 90 25 94 23 4 -2 5 7 2 20 -6 32 -19 41 -18 12z"/>
<path d="M140 1173 c0 -4 39 -28 86 -51 90 -45 110 -45 101 -1 -4 22 -4 22 -6
-3 0 -16 -3 -28 -6 -28 -3 0 -44 20 -90 45 -47 25 -85 42 -85 38z"/>
<path d="M271 1176 c12 -10 60 -16 54 -6 -3 5 -18 10 -32 10 -15 0 -24 -2 -22
-4z"/>
<path d="M131 1124 c0 -11 3 -14 6 -6 3 7 2 16 -1 19 -3 4 -6 -2 -5 -13z"/>
<path d="M2303 1085 c-18 -8 -33 -16 -33 -19 0 -3 16 2 36 10 48 20 148 15
152 -7 3 -19 -43 -39 -89 -39 -15 0 -30 -4 -34 -9 -7 -13 59 -3 103 15 33 14
40 32 20 52 -16 16 -116 14 -155 -3z"/>
<path d="M120 1065 c0 -7 6 -13 13 -12 66 2 77 -3 77 -33 0 -27 3 -30 33 -29
30 2 30 2 5 6 -21 3 -28 10 -28 27 0 21 4 23 53 20 34 -2 27 1 -23 7 -41 5
-87 14 -102 18 -21 7 -28 6 -28 -4z"/>
<path d="M2278 1028 c6 -6 18 -8 28 -6 14 3 12 5 -9 10 -19 3 -25 2 -19 -4z"/>
<path d="M110 1008 c0 -5 18 -8 40 -8 22 0 40 2 40 4 0 2 -18 6 -40 8 -22 2
-40 0 -40 -4z"/>
<path d="M290 990 c-13 -8 -12 -10 3 -10 9 0 17 5 17 10 0 12 -1 12 -20 0z"/>
<path d="M2343 963 c-40 -14 -73 -29 -73 -33 0 -9 53 0 60 10 3 5 34 17 70 28
36 11 54 20 40 20 -14 0 -58 -12 -97 -25z"/>
<path d="M190 963 c-38 -6 -80 -24 -80 -35 0 -5 10 -2 22 6 12 9 36 16 53 16
16 0 37 5 45 10 17 11 10 11 -40 3z"/>
<path d="M270 951 c33 -9 38 -37 8 -47 -13 -4 -48 -10 -78 -14 -49 -7 -51 -8
-15 -9 52 -1 115 16 122 35 7 20 -15 44 -41 43 -19 -1 -18 -2 4 -8z"/>
<path d="M2455 930 c-3 -5 -1 -10 4 -10 6 0 11 5 11 10 0 6 -2 10 -4 10 -3 0
-8 -4 -11 -10z"/>
<path d="M117 899 c7 -7 15 -10 18 -7 3 3 -2 9 -12 12 -14 6 -15 5 -6 -5z"/>
<path d="M305 889 c-5 -6 -44 -33 -85 -60 -41 -27 -67 -49 -58 -49 9 0 23 6
30 13 7 6 39 29 71 50 31 20 57 42 57 47 0 12 -2 12 -15 -1z"/>
<path d="M2260 890 c0 -6 7 -10 15 -10 8 0 15 2 15 4 0 2 -7 6 -15 10 -8 3
-15 1 -15 -4z"/>
<path d="M2310 874 c8 -3 22 -8 30 -11 8 -4 18 -5 23 -5 4 1 25 -2 47 -7 22
-5 42 -5 45 -1 2 4 -17 10 -43 13 -26 3 -63 9 -82 12 -19 3 -28 3 -20 -1z"/>
<path d="M2250 836 c0 -9 8 -16 18 -16 9 0 35 -3 57 -7 22 -3 37 -2 33 2 -4 4
-24 9 -44 11 -20 2 -42 8 -50 15 -11 9 -14 8 -14 -5z"/>
<path d="M315 820 c-3 -5 -1 -10 4 -10 6 0 11 5 11 10 0 6 -2 10 -4 10 -3 0
-8 -4 -11 -10z"/>
<path d="M2400 797 c19 -7 37 -12 39 -10 9 6 -6 13 -40 18 l-34 6 35 -14z"/>
<path d="M2240 785 c-16 -19 -1 -39 51 -66 70 -35 171 -17 131 23 -8 8 -9 5
-5 -11 5 -19 1 -21 -41 -21 -46 0 -117 28 -132 51 -4 7 1 18 11 26 11 7 14 13
8 13 -6 0 -16 -7 -23 -15z"/>
<path d="M241 779 c-63 -25 -101 -75 -72 -93 5 -4 7 2 4 12 -6 24 35 61 88 77
24 8 35 14 24 14 -11 0 -31 -5 -44 -10z"/>
<path d="M2196 720 c-15 -26 -15 -30 -2 -30 9 0 48 -21 87 -46 67 -42 72 -44
85 -27 7 10 14 22 14 27 0 6 -6 1 -14 -10 -14 -19 -15 -19 -50 0 -20 11 -36
22 -36 26 0 5 -10 11 -22 14 -13 3 -32 13 -42 21 -16 12 -17 17 -6 30 7 8 11
17 8 20 -2 2 -12 -9 -22 -25z"/>
<path d="M225 699 c-48 -21 -44 -23 14 -5 24 7 40 15 35 18 -5 3 -27 -3 -49
-13z"/>
<path d="M2280 690 c0 -5 5 -10 11 -10 5 0 7 5 4 10 -3 6 -8 10 -11 10 -2 0
-4 -4 -4 -10z"/>
<path d="M343 639 c-34 -27 -67 -58 -73 -69 -12 -22 -6 -40 13 -40 8 0 8 3 -2
9 -25 16 13 58 128 138 2 2 2 5 0 7 -2 2 -32 -18 -66 -45z"/>
<path d="M2150 650 c-12 -16 -17 -30 -11 -30 6 0 11 5 11 10 0 18 14 11 87
-45 40 -30 75 -50 78 -44 4 5 2 9 -4 9 -6 0 -40 21 -76 48 -47 34 -65 52 -61
65 6 24 0 21 -24 -13z"/>
<path d="M457 590 c-9 -11 -17 -25 -17 -30 0 -6 -14 -39 -31 -73 -27 -53 -28
-59 -10 -43 12 11 19 21 17 24 -3 2 11 33 31 68 36 66 40 89 10 54z"/>
<path d="M507 556 c-4 -10 -1 -13 8 -9 8 3 12 9 9 14 -7 12 -11 11 -17 -5z"/>
<path d="M2056 555 c-11 -8 -15 -15 -8 -15 6 0 35 -34 63 -75 52 -74 53 -75
72 -56 27 26 15 72 -32 122 -40 41 -64 47 -95 24z m81 -27 c47 -49 67 -118 34
-118 -12 0 -101 123 -101 139 0 22 37 10 67 -21z"/>
<path d="M409 543 c-13 -16 -12 -17 4 -4 9 7 17 15 17 17 0 8 -8 3 -21 -13z"/>
<path d="M540 529 c0 -6 -23 -43 -51 -81 -28 -38 -49 -71 -47 -73 2 -2 29 32
60 75 32 44 53 82 48 85 -6 3 -10 1 -10 -6z"/>
<path d="M2020 521 c0 -6 4 -13 10 -16 6 -3 7 1 4 9 -7 18 -14 21 -14 7z"/>
<path d="M549 419 c-25 -61 -31 -85 -20 -75 9 8 17 23 18 33 1 14 27 77 51
126 2 4 0 7 -5 7 -4 0 -24 -41 -44 -91z"/>
<path d="M1980 468 c14 -13 27 -22 30 -22 3 1 31 -16 63 -38 53 -36 57 -37 42
-14 -10 15 -20 24 -23 22 -2 -3 -30 12 -61 34 -62 44 -89 53 -51 18z"/>
<path d="M600 425 c-24 -25 -42 -45 -39 -45 3 0 25 20 49 45 24 25 42 45 39
45 -3 0 -25 -20 -49 -45z"/>
<path d="M672 455 c4 -4 -16 -43 -43 -87 -27 -45 -48 -82 -47 -83 21 -17 48
-24 54 -13 4 6 3 8 -2 5 -6 -3 -16 -2 -24 3 -13 8 -12 14 4 45 17 31 23 35 45
30 24 -6 25 -5 7 8 -15 11 -16 17 -8 33 27 47 29 49 46 34 9 -7 19 -10 22 -7
3 3 -9 13 -28 23 -18 9 -30 13 -26 9z"/>
<path d="M1934 437 c3 -10 6 -24 6 -29 0 -6 3 -8 7 -5 7 8 43 -21 43 -34 0
-11 58 -68 64 -62 2 2 -15 25 -39 51 -24 26 -53 58 -65 72 -16 18 -20 20 -16
7z"/>
<path d="M734 382 c-31 -61 -35 -74 -22 -66 8 5 9 -8 5 -47 l-5 -54 11 45 c6
24 21 53 33 65 33 28 40 67 16 82 -17 10 -21 7 -38 -25z m41 8 c9 -14 -23 -70
-40 -70 -20 0 -19 12 3 49 18 32 27 37 37 21z"/>
<path d="M1808 403 c-21 -5 -21 -3 -5 -39 28 -61 47 -98 42 -80 -3 11 2 24 12
32 17 12 16 13 -3 8 -17 -5 -24 1 -33 27 -14 41 -15 38 12 49 23 9 6 11 -25 3z"/>
<path d="M809 373 c-13 -16 -12 -17 3 -5 14 11 18 10 27 -5 6 -10 11 -13 11
-7 0 6 -6 17 -14 23 -10 9 -17 7 -27 -6z"/>
<path d="M867 312 c-8 -31 -14 -58 -12 -60 2 -2 9 16 16 40 7 23 16 48 21 55
5 6 5 14 0 17 -5 3 -16 -20 -25 -52z"/>
<path d="M1724 319 c6 -83 59 -161 88 -130 8 8 8 11 1 7 -31 -17 -67 35 -84
123 l-8 46 3 -46z"/>
<path d="M2066 345 c4 -8 11 -15 16 -15 6 0 5 6 -2 15 -7 8 -14 15 -16 15 -2
0 -1 -7 2 -15z"/>
<path d="M791 320 c0 -19 6 -46 14 -60 19 -32 19 -8 1 50 l-15 45 0 -35z"/>
<path d="M915 340 c-3 -6 1 -7 9 -4 12 4 16 0 17 -17 0 -23 1 -23 9 -4 5 11 9
23 9 28 1 11 -37 9 -44 -3z"/>
<path d="M1618 333 c6 -2 12 -11 12 -18 0 -8 6 -18 13 -22 7 -4 28 -30 47 -56
19 -27 36 -44 38 -38 2 6 -6 21 -17 34 -11 12 -34 41 -51 65 -17 23 -36 42
-43 41 -9 0 -9 -2 1 -6z"/>
<path d="M1008 300 c2 -16 5 -30 7 -30 2 0 5 14 7 30 3 19 0 30 -7 30 -7 0
-10 -11 -7 -30z"/>
<path d="M1547 323 c-3 -5 -1 -17 4 -28 7 -19 8 -19 8 2 1 12 7 24 14 26 7 3
6 6 -5 6 -9 1 -19 -2 -21 -6z"/>
<path d="M1070 309 c0 -5 5 -7 10 -4 6 3 10 8 10 11 0 2 -4 4 -10 4 -5 0 -10
-5 -10 -11z"/>
<path d="M1499 315 c-3 -5 0 -35 7 -65 7 -30 12 -44 12 -30 1 38 -13 106 -19
95z"/>
<path d="M1185 293 c14 -14 17 -30 13 -87 -3 -40 -2 -62 3 -51 20 51 5 155
-22 155 -6 0 -3 -8 6 -17z"/>
<path d="M675 270 c-9 -16 -12 -30 -7 -30 4 0 13 14 19 30 6 17 10 30 7 30 -2
0 -10 -13 -19 -30z"/>
<path d="M1141 269 c-6 -18 -10 -57 -10 -88 l2 -56 7 70 c4 39 11 78 15 88 4
9 5 17 2 17 -3 0 -10 -14 -16 -31z"/>
<path d="M1225 200 c0 -55 3 -100 8 -100 4 0 7 6 6 13 -1 6 -1 29 0 51 1 29 4
37 16 32 9 -3 15 0 15 9 0 9 -6 12 -15 9 -12 -5 -15 3 -15 36 0 37 2 42 20 37
11 -3 20 -1 20 4 0 5 -12 9 -27 9 l-28 0 0 -100z"/>
<path d="M1347 293 c-4 -3 -7 -11 -7 -17 0 -6 4 -5 9 3 8 12 12 12 25 2 9 -8
16 -9 16 -3 0 5 -7 13 -16 16 -19 7 -19 7 -27 -1z"/>
<path d="M1455 290 c3 -5 8 -10 11 -10 2 0 4 5 4 10 0 6 -5 10 -11 10 -5 0 -7
-4 -4 -10z"/>
<path d="M920 238 c-7 -29 -17 -58 -22 -64 -5 -8 -3 -14 7 -18 9 -3 14 -2 11
2 -3 5 2 35 10 66 8 32 13 60 11 63 -3 2 -10 -20 -17 -49z"/>
<path d="M1980 280 c0 -5 5 -10 11 -10 5 0 7 5 4 10 -3 6 -8 10 -11 10 -2 0
-4 -4 -4 -10z"/>
<path d="M1411 240 c-1 -62 16 -118 40 -131 20 -10 20 -9 -2 20 -14 19 -24 52
-29 93 -7 56 -7 58 -9 18z"/>
<path d="M1567 242 c2 -12 6 -42 10 -67 3 -24 9 -42 13 -40 5 3 4 21 -2 41 -5
20 -7 42 -4 50 3 8 1 14 -4 14 -5 0 -10 6 -13 13 -2 6 -2 2 0 -11z"/>
<path d="M1021 223 c0 -29 2 -33 8 -18 7 18 4 55 -5 55 -2 0 -4 -17 -3 -37z"/>
<path d="M1341 245 c0 -11 13 -36 29 -55 19 -21 30 -28 30 -19 0 9 -10 24 -21
35 -12 10 -25 28 -30 39 l-8 20 0 -20z"/>
<path d="M1854 247 c3 -10 6 -22 6 -27 0 -10 38 -1 46 11 3 5 -3 6 -12 2 -11
-4 -22 1 -32 13 -14 18 -14 18 -8 1z"/>
<path d="M800 221 c0 -6 -10 -16 -22 -21 -16 -6 -18 -9 -7 -9 19 -1 45 26 35
36 -3 3 -6 1 -6 -6z"/>
<path d="M826 195 c-3 -8 -1 -15 4 -15 6 0 10 7 10 15 0 8 -2 15 -4 15 -2 0
-6 -7 -10 -15z"/>
<path d="M1522 170 c0 -14 2 -19 5 -12 2 6 2 18 0 25 -3 6 -5 1 -5 -13z"/>
<path d="M1008 155 c-3 -14 -1 -25 3 -25 5 0 9 11 9 25 0 14 -2 25 -4 25 -2 0
-6 -11 -8 -25z"/>
<path d="M1670 160 c0 -5 5 -10 11 -10 5 0 7 5 4 10 -3 6 -8 10 -11 10 -2 0
-4 -4 -4 -10z"/>
<path d="M1620 150 c-9 -6 -10 -10 -3 -10 6 0 15 5 18 10 8 12 4 12 -15 0z"/>
<path d="M1525 130 c-3 -5 1 -10 10 -10 9 0 13 5 10 10 -3 6 -8 10 -10 10 -2
0 -7 -4 -10 -10z"/>
<path d="M1175 119 c-4 -6 -14 -8 -24 -4 -13 5 -14 4 -3 -6 10 -11 15 -10 29
4 10 9 14 17 11 17 -4 0 -10 -5 -13 -11z"/>
<path d="M1350 122 c0 -18 29 -27 43 -13 9 9 8 11 -7 5 -11 -4 -21 -2 -27 7
-6 10 -9 11 -9 1z"/>
</g>
</svg>
